<?xml version="1.0" encoding="UTF-8"?>
<!-- Generator: visioncortex VTracer -->
<svg id="svg" version="1.1" xmlns="http://www.w3.org/2000/svg" style="display: block;" viewBox="0 0 1029 818"><path d="M0 0 C1.24813477 0.00132935 1.24813477 0.00132935 2.52148438 0.00268555 C9.81900954 0.14188118 17.85109818 0.94703198 23.58203125 5.90625 C26.73913301 9.67472702 25.83597427 14.74117818 25.8125 19.375 C26.85881592 19.4886792 27.90513184 19.6023584 28.9831543 19.71948242 C107.07591521 28.26507215 184.92890007 39.12871579 262.8125 49.375 C262.95171875 48.25867188 263.0909375 47.14234375 263.234375 45.9921875 C263.8125 42.375 263.8125 42.375 265.0625 40.5 C270.66882622 36.89593315 279.09122206 37.91210197 285.375 39.0625 C289.9744433 40.2022566 294.30439305 42.13537062 297.8125 45.375 C298.97437006 48.74471291 298.94163123 51.99091849 298.9453125 55.53125 C298.94660156 56.71847656 298.94789063 57.90570313 298.94921875 59.12890625 C298.94535156 60.36511719 298.94148437 61.60132813 298.9375 62.875 C298.94136719 64.11121094 298.94523438 65.34742188 298.94921875 66.62109375 C298.94792969 67.80832031 298.94664062 68.99554688 298.9453125 70.21875 C298.94362061 71.84586914 298.94362061 71.84586914 298.94189453 73.50585938 C298.82966441 75.99440359 298.45652124 77.9913343 297.8125 80.375 C308.04711047 79.58899471 318.20645929 78.22257443 328.3828125 76.90625 C330.27364597 76.66325367 332.16450542 76.42045938 334.0553894 76.17785645 C339.00699863 75.54211467 343.95831136 74.90409448 348.9095459 74.26544189 C356.8391571 73.24295202 364.76918877 72.22373132 372.69927597 71.2049408 C375.45392756 70.85067985 378.20843368 70.49530506 380.96292114 70.13977051 C382.66554398 69.92062546 384.36817034 69.70150782 386.07080078 69.48242188 C386.82532532 69.38473007 387.57984985 69.28703827 388.35723877 69.18638611 C403.66743727 67.22001815 403.66743727 67.22001815 411.0625 67.0625 C412.22265625 67.02511719 413.3828125 66.98773438 414.578125 66.94921875 C418.59094153 67.477476 420.09359733 68.39095611 422.8125 71.375 C425.40821113 77.92936941 425.09162926 84.501892 425.06646729 91.4699707 C425.06877349 92.80746028 425.07195108 94.1449486 425.07592177 95.48243427 C425.0842565 99.14724911 425.08015053 102.81195953 425.07394934 106.47677469 C425.06942044 110.4332032 425.07641078 114.38961387 425.08190918 118.34603882 C425.09080014 126.09253528 425.08888249 133.83899297 425.0830839 141.58549094 C425.07856625 147.88151095 425.07795495 154.1775201 425.08013153 160.47354126 C425.080438 161.36978881 425.08074446 162.26603636 425.08106022 163.18944293 C425.08169967 165.01018008 425.0823481 166.83091722 425.0830054 168.65165436 C425.08870782 185.7227677 425.08215217 202.79385956 425.07140467 219.86496937 C425.06246924 234.51122732 425.0640213 249.15745356 425.07324219 263.80371094 C425.08394636 280.8139444 425.08815851 297.82415904 425.08201766 314.83439541 C425.08138057 316.64841652 425.08075182 318.46243763 425.08013153 320.27645874 C425.07982298 321.16898057 425.07951443 322.0615024 425.07919653 322.98107034 C425.07747003 329.26917397 425.08038372 335.55726565 425.08509064 341.84536743 C425.0907011 349.50895854 425.08917953 357.17250868 425.07852915 364.83609509 C425.07327468 368.74579832 425.07121189 372.65543324 425.07782745 376.56513596 C425.08379364 380.14522227 425.08050077 383.72517707 425.06987235 387.30525148 C425.06658546 389.21149324 425.07310334 391.11774416 425.07998681 393.02397633 C425.01786516 406.58153747 425.01786516 406.58153747 420.9375 411.75 C414.07097222 417.00087418 402.45334774 414.27794204 394.4375 413.421875 C392.40251583 413.21434543 390.3675219 413.00691155 388.33251953 412.79956055 C387.26986877 412.68945648 386.20721802 412.57935242 385.11236572 412.46591187 C365.40565985 410.42999573 345.68694568 408.62891068 325.9375 407.0625 C324.85243164 406.9756897 323.76736328 406.88887939 322.64941406 406.79943848 C319.58159866 406.55481269 316.51354162 406.31359447 313.4453125 406.07421875 C312.0862529 405.96677589 312.0862529 405.96677589 310.69973755 405.85716248 C306.72756362 405.55316592 302.80006573 405.28318443 298.8125 405.375 C298.82821045 406.52500488 298.82821045 406.52500488 298.84423828 407.69824219 C298.88582699 411.17379474 298.91183551 414.64929491 298.9375 418.125 C298.95425781 419.3315625 298.97101562 420.538125 298.98828125 421.78125 C298.99794922 423.52148438 298.99794922 423.52148438 299.0078125 425.296875 C299.02352295 426.89934082 299.02352295 426.89934082 299.03955078 428.53417969 C298.81039387 431.40135158 298.39304874 432.99641918 296.8125 435.375 C288.80397349 440.58054223 278.24419114 441.46133823 269.0625 439.625 C265.8125 438.375 265.8125 438.375 264.12475586 436.26000977 C261.83155679 433.99103127 261.83155679 433.99103127 258.11157227 434.33178711 C256.5936794 434.52132045 255.07859029 434.73414681 253.56640625 434.96484375 C251.83490991 435.18820512 250.10329613 435.41065743 248.37158203 435.63232422 C247.45950989 435.75629578 246.54743774 435.88026733 245.60772705 436.00799561 C240.96550865 436.61750407 236.309234 437.08457462 231.65234375 437.56640625 C229.58523004 437.78592771 227.51817482 438.00600053 225.45117188 438.2265625 C195.29479931 441.42853291 165.1228126 444.46315884 134.94515991 447.45727539 C115.91070315 449.34584131 96.87717693 451.23463913 77.859375 453.28515625 C76.50826222 453.43034818 75.15714735 453.57552067 73.80603027 453.72067261 C67.78090459 454.3694953 61.75691504 455.02682483 55.734375 455.69921875 C45.37685529 456.8361281 35.24723235 457.77642383 24.8125 457.375 C24.84786865 458.31827148 24.8832373 459.26154297 24.91967773 460.23339844 C24.8125 463.375 24.8125 463.375 23.09765625 465.640625 C16.49945072 470.64849381 8.10160454 470.66646725 0.125 470.75 C-0.67043213 470.76385742 -1.46586426 470.77771484 -2.28540039 470.79199219 C-8.3036002 470.74450146 -14.082065 469.92075766 -18.90112305 465.97021484 C-20.85185732 463.55114144 -20.38726806 461.3715209 -20.1875 458.375 C-21.35165939 458.24373215 -22.51581879 458.11246429 -23.71525574 457.97721863 C-27.78898885 457.46600261 -31.74023535 456.66159525 -35.7434082 455.73950195 C-36.81492126 455.49457095 -36.81492126 455.49457095 -37.90808105 455.24469185 C-39.45611086 454.89036817 -41.00373549 454.53427049 -42.55098915 454.1765728 C-45.04976273 453.59907204 -47.54963791 453.02657447 -50.04985046 452.45533752 C-53.6516685 451.63213366 -57.2531043 450.80728867 -60.85424805 449.98114014 C-90.56698471 443.16863648 -120.30669606 436.56072657 -150.16815186 430.4331665 C-166.75027105 427.02919398 -183.29512729 423.49369367 -199.80859375 419.76953125 C-200.67881794 419.57348297 -201.54904213 419.37743469 -202.44563675 419.17544556 C-211.00032002 417.24747714 -219.55285195 415.31054303 -228.0999136 413.34904575 C-231.24098976 412.62964533 -234.38347784 411.91655271 -237.52626228 411.2046566 C-238.97900571 410.87387855 -240.43107971 410.54014311 -241.88238335 410.20310402 C-251.76583602 407.90833218 -261.49662988 406.09274115 -271.6875 406.5 C-279.0139996 406.59358667 -287.27768156 404.82774252 -293.1875 400.375 C-295.91350536 394.8742894 -295.55529453 389.45046147 -295.5625 383.4375 C-295.58699219 382.36564453 -295.61148438 381.29378906 -295.63671875 380.18945312 C-295.64251953 378.62807617 -295.64251953 378.62807617 -295.6484375 377.03515625 C-295.66076416 375.62182007 -295.66076416 375.62182007 -295.67333984 374.17993164 C-295.1875 371.375 -295.1875 371.375 -293.18915081 368.81577682 C-290.52359768 364.23377212 -290.62742282 360.72279537 -290.67524719 355.51763916 C-290.66845151 354.52978762 -290.66165582 353.54193609 -290.6546542 352.52414966 C-290.63670785 349.21671926 -290.64716362 345.90999306 -290.6574707 342.60253906 C-290.65037331 340.23053927 -290.64151009 337.85854419 -290.63101196 335.48655701 C-290.60984057 329.71543226 -290.6068324 323.94450247 -290.61159722 318.17334566 C-290.61605069 311.45460869 -290.59712894 304.73599898 -290.57653918 298.0172995 C-290.54034382 286.03350981 -290.52117192 274.04975761 -290.51342773 262.06591797 C-290.50585941 250.43146033 -290.49275251 238.79703708 -290.47045898 227.16259766 C-290.46908829 226.44543887 -290.46771759 225.72828008 -290.46630535 224.98938921 C-290.45118566 217.16412508 -290.43445614 209.3388651 -290.41648388 201.51360703 C-290.41491191 200.82643138 -290.41333994 200.13925573 -290.41172033 199.43125658 C-290.39877157 193.77458821 -290.39877157 193.77458821 -290.39270272 191.1916897 C-290.37233665 182.48700655 -290.35918985 173.78235684 -290.35364306 165.0776515 C-290.34982187 160.09649662 -290.34221331 155.11535203 -290.3338356 150.13420296 C-290.33086565 147.81618214 -290.32964167 145.49815837 -290.33024788 143.18013573 C-290.33091069 140.02820788 -290.32559536 136.87634549 -290.31880188 133.72442627 C-290.32055225 132.79662613 -290.32230262 131.86882599 -290.32410604 130.9129107 C-290.30150733 124.60301466 -290.30150733 124.60301466 -289.1875 122.375 C-289.80625 122.2925 -290.425 122.21 -291.0625 122.125 C-293.1875 121.375 -293.1875 121.375 -294.30371094 119.65820312 C-295.33523379 116.99334078 -295.44610405 114.94826925 -295.453125 112.09375 C-295.45570313 111.08699219 -295.45828125 110.08023438 -295.4609375 109.04296875 C-295.45320313 107.99753906 -295.44546875 106.95210938 -295.4375 105.875 C-295.44523437 104.82957031 -295.45296875 103.78414063 -295.4609375 102.70703125 C-295.45835937 101.70027344 -295.45578125 100.69351563 -295.453125 99.65625 C-295.45086914 98.73908203 -295.44861328 97.82191406 -295.44628906 96.87695312 C-295.17181214 94.22333097 -294.6092148 92.61832285 -293.1875 90.375 C-286.67727696 85.91874032 -279.88189067 85.12863024 -272.25 85.0625 C-260.49439875 84.8413495 -249.82248342 81.60870123 -238.62669373 78.27488708 C-230.54949177 75.87151073 -222.42586638 73.63688884 -214.30508423 71.38619995 C-209.63139139 70.08902383 -204.96033516 68.78242178 -200.2890625 67.4765625 C-198.40267703 66.94951651 -196.51628387 66.42249801 -194.62988281 65.89550781 C-193.71533325 65.63999146 -192.80078369 65.3844751 -191.85852051 65.12121582 C-185.37831336 63.31080924 -178.89786508 61.50126681 -172.41726685 59.69226074 C-170.7550344 59.22822588 -169.09282352 58.76411372 -167.43063354 58.29992676 C-154.92712201 54.808292 -142.42075622 51.3269908 -129.91298866 47.85063934 C-123.90188931 46.1797945 -117.89101974 44.50812328 -111.88015747 42.83642578 C-108.38648154 41.86479031 -104.89271895 40.89346732 -101.39889526 39.92236328 C-77.12803765 33.17888286 -77.12803765 33.17888286 -52.8984375 26.2890625 C-51.37444084 25.85071075 -51.37444084 25.85071075 -49.81965637 25.40350342 C-45.36262033 24.1193805 -40.90802797 22.827504 -36.45678711 21.5234375 C-34.96729194 21.09112248 -33.47779049 20.65882905 -31.98828125 20.2265625 C-30.75247314 19.86385254 -29.51666504 19.50114258 -28.2434082 19.12744141 C-25.1875 18.375 -25.1875 18.375 -21.1875 18.375 C-21.249375 16.828125 -21.249375 16.828125 -21.3125 15.25 C-21.16881613 10.79580016 -20.52533039 7.34653953 -18 3.625 C-12.72425814 -0.01344266 -6.17512296 -0.01181782 0 0 Z M-13.1875 9.375 C-13.1875 19.605 -13.1875 29.835 -13.1875 40.375 C-2.9575 40.705 7.2725 41.035 17.8125 41.375 C19.98826906 37.02346187 19.08680289 31.21723223 19.125 26.4375 C19.15400391 25.23158203 19.18300781 24.02566406 19.21289062 22.78320312 C19.22545898 21.05166992 19.22545898 21.05166992 19.23828125 19.28515625 C19.25286377 18.22433838 19.26744629 17.16352051 19.2824707 16.07055664 C19.06384957 13.2656534 19.06384957 13.2656534 16.94799805 11.55126953 C8.71228709 7.01489645 -4.27783577 7.14758394 -13.1875 9.375 Z M-30.9453125 27.921875 C-32.10506592 28.26581299 -33.26481934 28.60975098 -34.4597168 28.96411133 C-35.39501724 29.246129 -35.39501724 29.246129 -36.34921265 29.53384399 C-39.82048445 30.57906194 -43.29931146 31.59864283 -46.77734375 32.62109375 C-47.52798599 32.84226364 -48.27862823 33.06343353 -49.05201721 33.29130554 C-58.30210257 36.00947473 -67.5873368 38.60122169 -76.875 41.1875 C-77.77343628 41.43790039 -78.67187256 41.68830078 -79.59753418 41.94628906 C-95.44223211 46.35961059 -111.30560713 50.70403687 -127.1784668 55.01489258 C-137.10569407 57.71156262 -147.02613928 60.43152469 -156.94140625 63.171875 C-167.44584903 66.07434015 -177.95648216 68.95289836 -188.47265625 71.8125 C-189.86177855 72.19039893 -191.25089801 72.56830831 -192.64001465 72.94622803 C-198.24968253 74.47215774 -203.85944686 75.99772786 -209.4699707 77.52050781 C-228.4177998 82.66406451 -247.32495469 87.92566094 -266.1875 93.375 C-266.20801926 94.01109695 -266.22853851 94.64719391 -266.24967957 95.30256653 C-266.30624011 97.0559435 -266.36328094 98.80930503 -266.42074585 100.56265259 C-266.4791371 102.40443897 -266.52951601 104.24648362 -266.57543945 106.08862305 C-266.60855225 106.88824463 -266.64166504 107.68786621 -266.67578125 108.51171875 C-266.70196533 109.32342529 -266.72814941 110.13513184 -266.75512695 110.97143555 C-267.1875 113.375 -267.1875 113.375 -270.1875 118.375 C-274.1475 119.365 -278.1075 120.355 -282.1875 121.375 C-282.1875 202.555 -282.1875 283.735 -282.1875 367.375 C-275.7525 368.86 -275.7525 368.86 -269.1875 370.375 C-266.96214206 373.71303691 -266.89771596 375.00319711 -266.7734375 378.91796875 C-266.73476563 379.99111328 -266.69609375 381.06425781 -266.65625 382.16992188 C-266.6253125 383.28947266 -266.594375 384.40902344 -266.5625 385.5625 C-266.52382813 386.69365234 -266.48515625 387.82480469 -266.4453125 388.99023438 C-266.35097467 391.7849925 -266.26538348 394.57974278 -266.1875 397.375 C-263.14800698 398.05184298 -260.10560835 398.71461872 -257.0625 399.375 C-256.2065625 399.56578125 -255.350625 399.7565625 -254.46875 399.953125 C-249.96017206 400.92420333 -245.83104396 401.61859575 -241.1875 401.375 C-241.1875 398.075 -241.1875 394.775 -241.1875 391.375 C-238.18664746 391.65935498 -235.18703094 391.95226878 -232.1875 392.25 C-231.34832031 392.32863281 -230.50914062 392.40726563 -229.64453125 392.48828125 C-225.60790361 392.89507318 -221.74031681 393.41234769 -217.8125 394.4453125 C-214.16545234 395.54061705 -214.16545234 395.54061705 -210.1875 395.375 C-209.6925 402.305 -209.6925 402.305 -209.1875 409.375 C-197.00442904 413.47736532 -184.57988831 415.9414748 -172 418.5 C-169.83126238 418.94604207 -167.66264161 419.39265269 -165.49414062 419.83984375 C-160.61070203 420.84512107 -155.72684718 421.84814085 -150.8397522 422.83551025 C-149.03171514 423.20327975 -147.22509031 423.57804485 -145.41976929 423.95892334 C-144.09762924 424.23424896 -144.09762924 424.23424896 -142.7487793 424.51513672 C-141.9664946 424.68052948 -141.1842099 424.84592224 -140.3782196 425.0163269 C-137.89957397 425.48271512 -137.89957397 425.48271512 -134.1875 425.375 C-133.8575 421.085 -133.5275 416.795 -133.1875 412.375 C-128.99804373 412.96747874 -124.81131054 413.57350779 -120.625 414.1875 C-119.44357422 414.35314453 -118.26214844 414.51878906 -117.04492188 414.68945312 C-113.74185117 415.17982497 -110.46848933 415.7554529 -107.1875 416.375 C-106.41809082 416.4786084 -105.64868164 416.5822168 -104.85595703 416.68896484 C-102.97265625 417.13671875 -102.97265625 417.13671875 -100.1875 419.375 C-98.98523148 424.01193033 -98.49643513 428.60226753 -98.1875 433.375 C-82.10929121 437.53084374 -65.97296265 441.41564076 -49.78723145 445.12921143 C-47.80812069 445.58380835 -45.82951905 446.0406276 -43.85144043 446.49969482 C-41.04047562 447.151062 -38.22762464 447.79355109 -35.4140625 448.43359375 C-34.14996048 448.72841393 -34.14996048 448.72841393 -32.86032104 449.02919006 C-32.06933014 449.20703537 -31.27833923 449.38488068 -30.46337891 449.56811523 C-29.77950104 449.72465073 -29.09562317 449.88118622 -28.39102173 450.04246521 C-25.57010813 450.52422099 -25.57010813 450.52422099 -20.1875 450.375 C-20.1875 445.755 -20.1875 441.135 -20.1875 436.375 C-26.00317459 436.94002564 -26.00317459 436.94002564 -31.75 437.9375 C-35.39623151 438.59195181 -38.46630877 438.67033264 -42.1875 438.375 C-45.99865422 435.44334291 -47.05218723 433.30196518 -47.74389648 428.56338501 C-48.36009699 422.49941617 -48.31157872 416.45021473 -48.28515625 410.36083984 C-48.28291412 408.39855807 -48.28067231 406.43627629 -48.27844238 404.47399449 C-48.27508612 402.3774227 -48.26923514 400.28087116 -48.26266479 398.1843071 C-48.24899716 393.77282712 -48.24321547 389.36135702 -48.23852539 384.94985962 C-48.22652608 374.76065626 -48.2046884 364.57147869 -48.18229675 354.3822937 C-48.16192613 345.09292914 -48.1438667 335.80357476 -48.13408184 326.51419222 C-48.12999598 322.86417595 -48.12387479 319.21419082 -48.11233521 315.56418991 C-48.05049569 295.81122469 -48.41849585 276.11203564 -49.1875 256.375 C-50.156875 255.941875 -51.12625 255.50875 -52.125 255.0625 C-55.1875 253.375 -55.1875 253.375 -56.1875 250.375 C-56.42432184 245.73289384 -56.37268205 241.08499549 -56.375 236.4375 C-56.38724609 235.14908203 -56.39949219 233.86066406 -56.41210938 232.53320312 C-56.41404297 231.29634766 -56.41597656 230.05949219 -56.41796875 228.78515625 C-56.42207764 227.65215088 -56.42618652 226.51914551 -56.43041992 225.35180664 C-56.18682885 222.3667755 -55.98132462 220.75788195 -54.1875 218.375 C-52.53794857 217.66704358 -50.8716368 216.99621289 -49.1875 216.375 C-48.3393843 201.24630598 -48.05925845 186.1721844 -48.11233521 171.02108192 C-48.12538411 167.25234541 -48.1316857 163.48364512 -48.13647461 159.71488953 C-48.14872399 151.03185419 -48.17035534 142.34885392 -48.19270325 133.66584015 C-48.21476163 125.0564026 -48.23252555 116.44697554 -48.24343872 107.83751488 C-48.24977863 104.17854183 -48.26228071 100.51962694 -48.27514648 96.860672 C-48.29173893 90.03147295 -48.26021792 83.20382118 -48.1875 76.375 C-48.17531433 75.13511196 -48.16312866 73.89522392 -48.15057373 72.61776352 C-48.10219117 68.87602362 -48.02298838 65.13622725 -47.93359375 61.39526367 C-47.91281517 59.67385776 -47.91281517 59.67385776 -47.89161682 57.91767597 C-47.84363197 56.32438103 -47.84363197 56.32438103 -47.79467773 54.69889832 C-47.76385353 53.29781468 -47.76385353 53.29781468 -47.73240662 51.86842632 C-47.02332878 48.62377251 -45.76106019 47.41844197 -43.1875 45.375 C-37.86701266 43.97089506 -34.17426029 44.63664907 -29 46.3125 C-25.07829332 47.56591655 -22.32856076 48.375 -18.1875 48.375 C-18.34597412 47.80426758 -18.50444824 47.23353516 -18.66772461 46.64550781 C-19.18111343 44.40289812 -19.38915896 42.34182085 -19.50390625 40.046875 C-19.54580078 39.24765625 -19.58769531 38.4484375 -19.63085938 37.625 C-19.67017578 36.8 -19.70949219 35.975 -19.75 35.125 C-19.79318359 34.28453125 -19.83636719 33.4440625 -19.88085938 32.578125 C-19.98658543 30.51059329 -20.08751295 28.44281719 -20.1875 26.375 C-24.09510526 26.19847574 -27.20776672 26.79681283 -30.9453125 27.921875 Z M25.8125 27.375 C25.8125 32.655 25.8125 37.935 25.8125 43.375 C104.00058823 53.25306023 104.00058823 53.25306023 182.25610352 62.57397461 C191.84822943 63.6740823 201.43545944 64.8081747 211.01953125 65.9765625 C212.71081398 66.18214279 212.71081398 66.18214279 214.43626404 66.39187622 C219.92742349 67.05943386 225.41808346 67.73065662 230.90795898 68.40869141 C241.54293905 69.70960477 252.11267859 70.79438954 262.8125 71.375 C262.8125 66.755 262.8125 62.135 262.8125 57.375 C229.57551331 52.68314291 196.32799653 48.10616404 163.0234375 43.91796875 C162.30816674 43.82801211 161.59289598 43.73805547 160.85595036 43.64537287 C152.1569703 42.55196311 143.45715685 41.46527442 134.75698018 40.3814317 C125.14813626 39.18423591 115.54016614 37.98005959 105.93212318 36.77645588 C104.47677282 36.59415599 103.02142195 36.41186016 101.56607056 36.22956848 C100.49640027 36.09557828 100.49640027 36.09557828 99.40512049 35.9588812 C94.683695 35.36761547 89.96205893 34.77805973 85.24032593 34.18925476 C82.72450383 33.87514252 80.20868548 33.56100018 77.69287109 33.24682617 C76.48186926 33.09593127 75.27086742 32.94503637 74.02316856 32.7895689 C67.42841544 31.96470665 60.83683673 31.11925368 54.24786377 30.24966431 C52.82069718 30.06217014 51.39352553 29.87471458 49.96634865 29.68729877 C47.25065366 29.330568 44.53569312 28.96881006 41.82105064 28.60416698 C40.59818163 28.44328752 39.37531261 28.28240805 38.11538696 28.11665344 C36.50344672 27.90149818 36.50344672 27.90149818 34.85894203 27.68199635 C31.32785104 27.27473571 31.32785104 27.27473571 25.8125 27.375 Z M-9.1875 48.375 C-9.1875 49.695 -9.1875 51.015 -9.1875 52.375 C-6.4393872 53.21503448 -3.68930419 54.04722151 -0.9375 54.875 C-0.16019531 55.11347656 0.61710937 55.35195312 1.41796875 55.59765625 C2.17207031 55.82324219 2.92617188 56.04882812 3.703125 56.28125 C4.39438477 56.49072266 5.08564453 56.70019531 5.79785156 56.91601562 C8.11813264 57.52308784 8.11813264 57.52308784 11.8125 57.375 C11.8125 54.405 11.8125 51.435 11.8125 48.375 C9.06387953 47.98491194 6.3147766 47.61249497 3.5625 47.25 C2.78519531 47.13785156 2.00789063 47.02570313 1.20703125 46.91015625 C-4.26540982 46.1297481 -4.26540982 46.1297481 -9.1875 48.375 Z M269.8125 46.375 C269.78784119 50.34430989 269.76965977 54.31359034 269.75756836 58.28295898 C269.75252943 59.63420386 269.74569823 60.98544326 269.73706055 62.33666992 C269.72497581 64.27520434 269.71980172 66.213778 269.71484375 68.15234375 C269.70960693 69.32015381 269.70437012 70.48796387 269.69897461 71.69116211 C269.50588505 74.29391551 269.50588505 74.29391551 270.8125 75.375 C272.29687809 75.60123521 273.79027425 75.76912965 275.28515625 75.91015625 C276.18427734 75.99716797 277.08339844 76.08417969 278.00976562 76.17382812 C278.95529297 76.26083984 279.90082031 76.34785156 280.875 76.4375 C281.82439453 76.52837891 282.77378906 76.61925781 283.75195312 76.71289062 C286.10512135 76.93756498 288.45860619 77.15808182 290.8125 77.375 C292.13248825 74.73502351 291.94206032 72.73422683 291.9453125 69.78125 C291.94660156 68.66878906 291.94789063 67.55632812 291.94921875 66.41015625 C291.94341797 64.66025391 291.94341797 64.66025391 291.9375 62.875 C291.94136719 61.70839844 291.94523438 60.54179687 291.94921875 59.33984375 C291.94728516 57.67115234 291.94728516 57.67115234 291.9453125 55.96875 C291.94418457 54.94458984 291.94305664 53.92042969 291.94189453 52.86523438 C291.97902296 50.37454711 291.97902296 50.37454711 290.8125 48.375 C288.04597495 47.67483641 288.04597495 47.67483641 284.75 47.25 C283.09291016 46.99863281 283.09291016 46.99863281 281.40234375 46.7421875 C277.49306007 46.34232606 273.73933631 46.31478564 269.8125 46.375 Z M18.8125 50.375 C18.8125 53.675 18.8125 56.975 18.8125 60.375 C19.85704346 60.72804199 20.90158691 61.08108398 21.9777832 61.44482422 C25.85380323 62.7561587 29.72784592 64.07325116 33.60131836 65.39208984 C35.27786767 65.96202254 36.95494873 66.53039354 38.63256836 67.09716797 C41.04422327 67.91223453 43.45390845 68.73290321 45.86328125 69.5546875 C46.61337967 69.80685028 47.36347809 70.05901306 48.13630676 70.31881714 C51.34537965 71.41873457 53.97321182 72.48214121 56.8125 74.375 C58.05723532 78.10920597 58.04459785 81.64865238 58.12890625 85.54296875 C58.14968735 86.33778152 58.17046844 87.1325943 58.19187927 87.95149231 C58.25722087 90.48840763 58.31618808 93.02542573 58.375 95.5625 C58.41819986 97.28321372 58.46181463 99.00391708 58.50585938 100.72460938 C58.61288648 104.94130113 58.71419724 109.1580962 58.8125 113.375 C67.48526373 113.86854711 75.68219675 112.3395517 84.15234375 110.70703125 C85.64263647 110.42674641 87.13308313 110.14727903 88.62367249 109.86857605 C92.54221494 109.13371314 96.45864472 108.38815192 100.37469482 107.64013672 C104.26360181 106.89906895 108.15430383 106.16756858 112.04492188 105.43554688 C117.38378292 104.43022929 122.7220401 103.42181667 128.05951881 102.40918541 C136.28697877 100.84847934 144.51848101 99.31117741 152.75390625 97.79296875 C166.78321637 95.20495614 180.7980938 92.54236634 194.8125 89.875 C198.47492977 89.17792859 202.13740105 88.48108132 205.80004883 87.78515625 C208.20631688 87.32777313 210.61240733 86.86945461 213.01831055 86.41015625 C219.19516634 85.23465782 225.37581518 84.08933153 231.56640625 82.98828125 C232.81405762 82.76434692 234.06170898 82.5404126 235.34716797 82.30969238 C237.73432522 81.88266215 240.12264271 81.46205451 242.51220703 81.04870605 C243.5742334 80.85796509 244.63625977 80.66722412 245.73046875 80.47070312 C247.13462036 80.22471375 247.13462036 80.22471375 248.56713867 79.97375488 C250.99412272 79.52740341 250.99412272 79.52740341 252.8125 77.375 C251.64901535 77.23656174 250.4855307 77.09812347 249.28678894 76.95549011 C199.07160517 70.98011922 148.85657154 65.00289954 98.65029907 58.95303345 C94.79167786 58.48811521 90.93293149 58.02425845 87.07406616 57.56137085 C81.69489215 56.91593723 76.31603799 56.26789983 70.9375 55.6171875 C69.69662376 55.46718103 69.69662376 55.46718103 68.43067932 55.31414413 C58.2425839 54.07922011 48.06559297 52.79958517 37.92541504 51.20956421 C31.51473768 50.22715459 25.28894518 50.05057696 18.8125 50.375 Z M-40.1875 51.375 C-41.61217997 54.22435995 -41.31677577 56.63457949 -41.32121277 59.82139587 C-41.32347833 60.49069061 -41.32574388 61.15998535 -41.32807809 61.84956175 C-41.33443192 64.10276877 -41.33358785 66.35591585 -41.33276367 68.60913086 C-41.33575429 70.22030211 -41.33915659 71.83147263 -41.34294128 73.44264221 C-41.3517951 77.82688673 -41.35411997 82.21111174 -41.35475707 86.59536433 C-41.35570505 90.25110188 -41.35938204 93.90683484 -41.36292917 97.56257063 C-41.37107888 106.18486389 -41.37351292 114.8071467 -41.37280273 123.42944336 C-41.37220171 132.33400233 -41.38275734 141.23850077 -41.3985464 150.14304441 C-41.4116063 157.77958937 -41.41698729 165.4161145 -41.41634732 173.05267054 C-41.41609189 177.61740498 -41.41896794 182.18208565 -41.42952538 186.74680901 C-41.43918041 191.03871561 -41.43930346 195.33051674 -41.43200874 199.62242699 C-41.43095968 201.19986372 -41.43334476 202.77730693 -41.4393692 204.35473251 C-41.44704689 206.50382066 -41.44247273 208.65254069 -41.43473816 210.80162048 C-41.43528293 212.00564986 -41.43582769 213.20967924 -41.43638897 214.45019436 C-41.40792351 217.56669777 -41.40792351 217.56669777 -39.1875 220.375 C-38.92871094 223.40600586 -38.92871094 223.40600586 -38.921875 227.08984375 C-38.91996155 227.74199356 -38.9180481 228.39414337 -38.91607666 229.0660553 C-38.91471738 230.443699 -38.91839594 231.82135562 -38.92675781 233.19897461 C-38.93744442 235.30156437 -38.92686349 237.40329644 -38.9140625 239.50585938 C-38.91538448 240.84635604 -38.91794767 242.18685218 -38.921875 243.52734375 C-38.92413086 244.74413818 -38.92638672 245.96093262 -38.92871094 247.21459961 C-39.1875 250.375 -39.1875 250.375 -40.18822193 252.12527943 C-41.60437452 255.31352874 -41.43620546 258.04858949 -41.43473816 261.53092957 C-41.43715257 262.25234691 -41.43956699 262.97376426 -41.44205457 263.71704274 C-41.44769085 266.13461469 -41.43902916 268.55192234 -41.43041992 270.96948242 C-41.4314928 272.70241874 -41.43343156 274.4353547 -41.43617249 276.16828918 C-41.44102205 280.87461634 -41.43336453 285.58084875 -41.42321944 290.28716445 C-41.4144443 295.20611576 -41.41619626 300.12506406 -41.4165802 305.04402161 C-41.41564355 313.30174346 -41.40695799 321.55942856 -41.39331055 329.81713867 C-41.37756943 339.37727824 -41.37231297 348.93737761 -41.3730461 358.49752921 C-41.37365542 367.68230639 -41.36855981 376.86707041 -41.36025429 386.05184364 C-41.35671516 389.96691299 -41.35489015 393.88197769 -41.35436058 397.79704857 C-41.35335955 402.4008514 -41.34728267 407.00462018 -41.33719444 411.60841179 C-41.33426219 413.30279075 -41.33304553 414.99717362 -41.33362198 416.69155502 C-41.33410916 418.99441389 -41.3284919 421.29717593 -41.32121277 423.60002136 C-41.31953692 424.89178882 -41.31786108 426.18355627 -41.31613445 427.51446819 C-41.51436906 430.27300671 -41.51436906 430.27300671 -40.1875 431.375 C-34.11169462 431.86589288 -29.12943856 430.40793405 -23.375 428.5625 C-20.83398438 427.77148438 -20.83398438 427.77148438 -18.29296875 426.98046875 C-17.46200684 426.7179834 -16.63104492 426.45549805 -15.77490234 426.18505859 C-11.59108733 424.87519841 -7.38951866 423.62500662 -3.1875 422.375 C-3.1875 421.715 -3.1875 421.055 -3.1875 420.375 C-2.0325 420.25125 -0.8775 420.1275 0.3125 420 C7.20913421 419.26107491 13.958246 417.0920252 20.63671875 415.28125 C21.34601028 415.08905884 22.05530182 414.89686768 22.78608704 414.69885254 C24.27101422 414.29597047 25.75581019 413.8926045 27.24047852 413.48876953 C29.50399475 412.87391488 31.76858659 412.26313143 34.03320312 411.65234375 C35.48444331 411.25806386 36.93561753 410.86354105 38.38671875 410.46875 C39.0576506 410.28848267 39.72858246 410.10821533 40.41984558 409.92248535 C44.0257615 408.93599169 47.32113728 407.77154509 50.8125 406.375 C50.8125 298.135 50.8125 189.895 50.8125 78.375 C23.16261923 69.14223398 23.16261923 69.14223398 -4.625 60.375 C-6.41351701 59.82456158 -8.20192804 59.27377872 -9.99023438 58.72265625 C-14.04870474 57.47289558 -18.10946287 56.23082355 -22.17138672 54.99234009 C-23.94870099 54.44812099 -25.72357314 53.89594002 -27.49804688 53.3425293 C-28.38427734 53.06836182 -29.27050781 52.79419434 -30.18359375 52.51171875 C-31.24791626 52.17853638 -31.24791626 52.17853638 -32.33374023 51.83862305 C-34.97726165 51.17748158 -37.48386133 51.16155484 -40.1875 51.375 Z M397.0625 75.8125 C396.2803714 75.89336853 395.4982428 75.97423706 394.69241333 76.05755615 C376.14668466 77.99628726 357.65075476 80.34649996 339.15342712 82.69487381 C336.76082244 82.99862604 334.36814463 83.30179764 331.97546387 83.60494995 C328.13544885 84.09192829 324.29575505 84.5813705 320.45630836 85.07280922 C319.03042286 85.25522166 317.60447971 85.43718411 316.17847252 85.61864281 C301.58705241 86.0758833 301.58705241 86.0758833 288.8125 90.375 C288.72474395 92.52058827 288.70554781 94.66904421 288.71484375 96.81640625 C288.71806641 98.12158203 288.72128906 99.42675781 288.72460938 100.77148438 C288.73296599 102.1601569 288.74143095 103.54882877 288.75 104.9375 C288.75501334 106.33007656 288.75957653 107.72265481 288.76367188 109.11523438 C288.77550566 112.5351987 288.7919912 115.95507844 288.8125 119.375 C291.4525 119.705 294.0925 120.035 296.8125 120.375 C297.87901855 125.61373913 297.99590676 130.67878299 298 136 C298.01224609 136.845625 298.02449219 137.69125 298.03710938 138.5625 C298.04000977 139.78839844 298.04000977 139.78839844 298.04296875 141.0390625 C298.04707764 141.77592285 298.05118652 142.5127832 298.05541992 143.27197266 C297.75255738 145.8939404 297.43565401 147.26036085 295.8125 149.375 C292.3475 150.365 292.3475 150.365 288.8125 151.375 C288.8125 214.075 288.8125 276.775 288.8125 341.375 C292.7725 342.86 292.7725 342.86 296.8125 344.375 C297.80078125 347.05859375 297.80078125 347.05859375 297.8125 350.375 C297.86792969 351.66535156 297.92335938 352.95570313 297.98046875 354.28515625 C297.99227606 355.66923578 297.99870763 357.05337071 298 358.4375 C298.01224609 359.13166016 298.02449219 359.82582031 298.03710938 360.54101562 C298.04869216 364.60657292 297.61562672 367.71885767 295.8125 371.375 C293.5025 371.705 291.1925 372.035 288.8125 372.375 C288.78362764 376.18748426 288.76574508 379.9999407 288.75 383.8125 C288.74162109 384.90111328 288.73324219 385.98972656 288.72460938 387.11132812 C288.72138672 388.14580078 288.71816406 389.18027344 288.71484375 390.24609375 C288.70960693 391.20443115 288.70437012 392.16276855 288.69897461 393.15014648 C288.5619687 395.34785339 288.5619687 395.34785339 289.8125 396.375 C291.92279051 396.68098244 294.04268486 396.92059797 296.1640625 397.13671875 C297.20420753 397.24343651 297.20420753 397.24343651 298.2653656 397.35231018 C300.65553478 397.59482956 303.04640905 397.82925121 305.4375 398.0625 C306.2726413 398.14504028 307.10778259 398.22758057 307.9682312 398.31262207 C326.79347863 400.16608531 345.63947691 401.79997089 364.48607635 403.41897964 C366.86165663 403.62384927 369.23703214 403.83095699 371.61236572 404.03866577 C375.42696099 404.37178631 379.24209171 404.69800421 383.05769539 405.0193615 C384.47063407 405.13929279 385.88339975 405.26128525 387.29595757 405.38562202 C396.8399963 406.22322716 406.24061407 406.51928287 415.8125 406.375 C416.84541352 403.27625944 416.93882579 401.15285445 416.94113445 397.90456295 C416.94597112 396.1888478 416.94597112 396.1888478 416.9509055 394.43847173 C416.9493569 393.17623441 416.9478083 391.91399708 416.94621277 390.61351013 C416.94808011 389.26353598 416.95038051 387.91356238 416.95307809 386.56358963 C416.95921174 382.84590811 416.95906067 379.12824902 416.95788372 375.41056359 C416.95768011 371.40440212 416.96319455 367.39824794 416.96794128 363.39208984 C416.97625642 355.54112233 416.97899649 347.69016232 416.97955366 339.83919077 C416.98002831 333.46103579 416.98208049 327.08288328 416.98525429 320.70472908 C416.99406237 302.63721181 416.9986733 284.56970048 416.99792381 266.50218105 C416.99788386 265.52765515 416.9978439 264.55312925 416.99780273 263.54907227 C416.99774141 262.08550741 416.99774141 262.08550741 416.99767885 260.59237558 C416.9972721 244.76708373 417.00684872 228.94181563 417.0209411 213.11653065 C417.03528377 196.88266617 417.04221249 180.6488133 417.04134732 164.41494232 C417.04101468 155.29456171 417.04379148 146.17420602 417.05452538 137.0538311 C417.06360257 129.29119013 417.06582857 121.52858539 417.05901595 113.76594143 C417.05573691 109.80220089 417.05574359 105.83852996 417.0643692 101.87479591 C417.07217427 98.2510232 417.07086494 94.62737599 417.06208507 91.00360657 C417.05979954 89.06166233 417.06742539 87.11971438 417.07532471 85.17778486 C417.07072592 84.03658251 417.06612712 82.89538015 417.06138897 81.71959591 C417.06160634 80.72863318 417.06182371 79.73767046 417.06204766 78.71667856 C417.04007838 76.18378179 417.04007838 76.18378179 414.8125 74.375 C408.88079511 74.375 402.95954172 75.201694 397.0625 75.8125 Z M253.078125 84.77734375 C250.61132923 85.33892593 248.14310006 85.89423177 245.67382812 86.44482422 C244.99621807 86.59628308 244.31860802 86.74774195 243.62046432 86.90379047 C233.599456 89.11861874 223.50580219 90.97649718 213.421875 92.87890625 C211.81548912 93.18251635 211.81548912 93.18251635 210.176651 93.49225998 C204.57407445 94.55074123 198.97089038 95.60594576 193.3671875 96.65844727 C188.9089772 97.4958444 184.45127759 98.3358637 179.99414062 99.17895508 C139.640309 106.81081776 99.23035043 114.07733256 58.8125 121.375 C58.8125 201.235 58.8125 281.095 58.8125 363.375 C65.59524691 365.07632588 65.59524691 365.07632588 72.3918457 366.28198242 C73.95952194 366.51032021 73.95952194 366.51032021 75.55886841 366.74327087 C77.25642776 366.98443382 77.25642776 366.98443382 78.98828125 367.23046875 C80.21682831 367.40876724 81.44537537 367.58706573 82.71115112 367.77076721 C85.41401673 368.16295454 88.11704123 368.55378462 90.82040405 368.94250488 C98.39494734 370.03229801 105.96700932 371.13915387 113.5390625 372.24609375 C114.35907682 372.36586704 115.17909115 372.48564034 116.02395439 372.60904312 C141.4591592 376.32683382 166.86939725 380.21200039 192.28189087 384.08139038 C205.15711915 386.04178582 218.03307409 387.9972118 230.91130829 389.93777466 C232.86752803 390.23258759 234.82370906 390.5276575 236.77985382 390.82296753 C242.57112329 391.69693252 248.36318477 392.56526853 254.15654945 393.42523956 C255.93849663 393.69047477 257.72019125 393.95741329 259.50160789 394.22618866 C261.94739877 394.5947867 264.39406444 394.95691182 266.84106445 395.31738281 C267.90415675 395.47968006 267.90415675 395.47968006 268.98872566 395.64525604 C273.38722182 396.28414537 277.2939977 396.375 281.8125 396.375 C281.8125 293.085 281.8125 189.795 281.8125 83.375 C272.66569471 80.3260649 262.20106207 82.5585716 253.078125 84.77734375 Z M-281.875 93.875 C-283.628125 94.37 -285.38125 94.865 -287.1875 95.375 C-287.1875 101.975 -287.1875 108.575 -287.1875 115.375 C-278.69674772 114.83639894 -278.69674772 114.83639894 -273.1875 112.375 C-273.1875 105.775 -273.1875 99.175 -273.1875 92.375 C-276.3877215 92.375 -278.80233471 93.00742392 -281.875 93.875 Z M287.8125 126.375 C287.8125 132.315 287.8125 138.255 287.8125 144.375 C289.1325 144.375 290.4525 144.375 291.8125 144.375 C291.8125 138.435 291.8125 132.495 291.8125 126.375 C290.4925 126.375 289.1725 126.375 287.8125 126.375 Z M-49.1875 223.375 C-49.1875 231.955 -49.1875 240.535 -49.1875 249.375 C-47.8675 249.375 -46.5475 249.375 -45.1875 249.375 C-45.1875 240.795 -45.1875 232.215 -45.1875 223.375 C-46.5075 223.375 -47.8275 223.375 -49.1875 223.375 Z M287.8125 348.375 C287.8125 353.985 287.8125 359.595 287.8125 365.375 C289.1325 365.375 290.4525 365.375 291.8125 365.375 C291.8125 359.765 291.8125 354.155 291.8125 348.375 C290.4925 348.375 289.1725 348.375 287.8125 348.375 Z M58.8125 371.375 C58.79268066 372.44459961 58.77286133 373.51419922 58.75244141 374.61621094 C58.6762902 378.58975512 58.58758758 382.56293766 58.49511719 386.53613281 C58.45686673 388.25481011 58.42200697 389.97356638 58.390625 391.69238281 C58.34488872 394.1650004 58.28690916 396.63707613 58.2265625 399.109375 C58.20923569 400.25959137 58.20923569 400.25959137 58.19155884 401.43304443 C57.99931626 408.40346989 57.99931626 408.40346989 55.8125 411.375 C52.96875 412.68359375 52.96875 412.68359375 49.3125 413.8125 C48.66337646 414.01641357 48.01425293 414.22032715 47.34545898 414.43041992 C39.22686488 416.94238252 31.01774138 419.16625805 22.8125 421.375 C22.8125 421.705 22.8125 422.035 22.8125 422.375 C32.30616693 422.65107605 41.64306329 421.78581778 51.078125 420.88671875 C52.94985419 420.71215384 54.82162127 420.53799477 56.69342041 420.36418152 C62.37173054 419.8351184 68.04930872 419.29847921 73.72683716 418.76110077 C78.16333893 418.34150215 82.60009111 417.92458108 87.03686523 417.50787354 C109.95853886 415.35475433 132.87896794 413.18863106 155.79892492 411.01732147 C163.65955886 410.27275686 171.52033667 409.52971977 179.38114524 408.78700143 C187.04841823 408.06251417 194.71560284 407.33709675 202.38271737 406.61093444 C206.92623452 406.18062193 211.46978371 405.75065552 216.0134201 405.32160378 C220.25261667 404.92126139 224.49170139 404.51975477 228.73070335 404.11735725 C230.27862075 403.97061173 231.82657671 403.82427234 233.37457466 403.67837906 C244.10908771 402.66767914 244.10908771 402.66767914 254.8125 401.375 C251.19959996 398.96639998 247.93357712 398.57993093 243.734375 397.9765625 C242.89992859 397.85084869 242.06548218 397.72513489 241.20574951 397.59561157 C238.40940624 397.17840157 235.6113851 396.77479029 232.8125 396.375 C231.84675049 396.2368689 230.88100098 396.09873779 229.88598633 395.9564209 C224.60158583 395.20412328 219.3157124 394.46260038 214.02929688 393.72460938 C192.40992827 390.7041999 170.84362406 387.471626 149.3125 383.875 C129.8433487 380.6270258 110.3507438 377.61402816 90.8125 374.8125 C89.5953833 374.63638184 88.3782666 374.46026367 87.12426758 374.27880859 C83.68781235 373.78290261 80.25041082 373.29429443 76.8125 372.80859375 C75.79845093 372.66219955 74.78440186 372.51580536 73.73962402 372.36497498 C68.70839605 371.66521364 63.89213992 371.21317467 58.8125 371.375 Z M-287.1875 373.375 C-287.1875 380.635 -287.1875 387.895 -287.1875 395.375 C-278.97806942 398.63852314 -278.97806942 398.63852314 -273.1875 398.375 C-273.1875 391.115 -273.1875 383.855 -273.1875 376.375 C-277.94399007 373.70009219 -277.94399007 373.70009219 -287.1875 373.375 Z M-234.1875 398.375 C-234.1875 400.355 -234.1875 402.335 -234.1875 404.375 C-230.57756828 405.50980527 -227.2032673 405.47515767 -223.4375 405.4375 C-222.26703125 405.42847656 -221.0965625 405.41945313 -219.890625 405.41015625 C-218.99859375 405.39855469 -218.1065625 405.38695312 -217.1875 405.375 C-217.1875 404.055 -217.1875 402.735 -217.1875 401.375 C-219.64537656 400.87266027 -222.10375024 400.37303143 -224.5625 399.875 C-225.26117188 399.73191406 -225.95984375 399.58882812 -226.6796875 399.44140625 C-230.40380936 398.65396605 -230.40380936 398.65396605 -234.1875 398.375 Z M283.58203125 404.8125 C282.49692261 404.93431641 282.49692261 404.93431641 281.38989258 405.05859375 C280.47747803 405.16300781 279.56506348 405.26742188 278.625 405.375 C274.2628125 405.87 274.2628125 405.87 269.8125 406.375 C269.8125 414.955 269.8125 423.535 269.8125 432.375 C274.700625 432.189375 274.700625 432.189375 279.6875 432 C280.71343262 431.96600098 281.73936523 431.93200195 282.79638672 431.89697266 C283.60350098 431.8613623 284.41061523 431.82575195 285.2421875 431.7890625 C286.06960449 431.7576416 286.89702148 431.7262207 287.74951172 431.69384766 C290.03236085 431.54900863 290.03236085 431.54900863 291.8125 429.375 C292.10659112 427.09690478 292.10659112 427.09690478 292.04296875 424.47265625 C292.04006836 423.01375977 292.04006836 423.01375977 292.03710938 421.52539062 C292.02486328 420.50638672 292.01261719 419.48738281 292 418.4375 C291.99935547 417.42236328 291.99871094 416.40722656 291.99804688 415.36132812 C292.01946847 409.7780476 292.01946847 409.7780476 290.8125 404.375 C288.33217824 404.375 286.03873777 404.53372479 283.58203125 404.8125 Z M255.17070007 407.98674011 C254.46741209 408.05263267 253.76412411 408.11852523 253.03952438 408.18641454 C250.66261936 408.40923061 248.28577798 408.63271854 245.90893555 408.85620117 C244.20993402 409.01561252 242.51092881 409.17498455 240.81192017 409.33432007 C236.16603229 409.77014841 231.52020094 410.20657657 226.87438178 410.64313674 C222.962374 411.01068718 219.05033901 411.37794756 215.13830405 411.74520856 C205.84615065 412.61755862 196.55404259 413.4903906 187.26196289 414.36352539 C178.84534318 415.15439071 170.42867717 415.94476087 162.01196289 416.73461914 C137.4760754 419.03725025 112.94061536 421.34434947 88.40586722 423.65909064 C82.83857913 424.18423585 77.27116783 424.70805563 71.70367432 425.23101807 C65.29650284 425.83290651 58.88966928 426.43827721 52.48313332 427.0468998 C50.28675489 427.25503883 48.09026353 427.46199005 45.89365196 427.66765404 C42.99103422 427.93962524 40.08885678 428.21586296 37.18676758 428.4934082 C35.95062053 428.60769511 35.95062053 428.60769511 34.68950081 428.72429085 C31.56683969 429.0269428 28.80035015 429.37904995 25.8125 430.375 C25.8125 436.975 25.8125 443.575 25.8125 450.375 C42.41010699 449.76983256 58.83102857 447.98318306 75.32876587 446.1661377 C83.70990496 445.24315015 92.09324453 444.34044467 100.4765625 443.4375 C101.31083834 443.34749977 102.14511417 443.25749954 103.0046711 443.16477203 C118.03502205 441.54477915 133.07404275 440.04209804 148.125 438.625 C152.25784597 438.23472856 156.39066025 437.84412344 160.5234375 437.453125 C161.49118103 437.3616217 162.45892456 437.27011841 163.45599365 437.17584229 C190.84348478 434.57499813 218.18346844 431.4785873 245.5234375 428.42578125 C246.75682106 428.28853386 246.75682106 428.28853386 248.01512146 428.14851379 C248.79436478 428.0612352 249.57360809 427.9739566 250.37646484 427.8840332 C251.04350433 427.80949417 251.71054382 427.73495514 252.39779663 427.65815735 C255.87181034 427.25078122 259.34169318 426.80885085 262.8125 426.375 C262.8125 420.105 262.8125 413.835 262.8125 407.375 C260.27288434 407.375 257.69278025 407.74998735 255.17070007 407.98674011 Z M-126.1875 420.375 C-126.1875 422.685 -126.1875 424.995 -126.1875 427.375 C-119.18120876 429.2599413 -112.42339973 430.77200836 -105.1875 431.375 C-105.1875 428.735 -105.1875 426.095 -105.1875 423.375 C-107.74899628 422.86932271 -110.31149465 422.37029868 -112.875 421.875 C-113.59623047 421.73191406 -114.31746094 421.58882812 -115.06054688 421.44140625 C-118.82591359 420.71928113 -122.33223813 420.1925024 -126.1875 420.375 Z M-5 431.8125 C-5.69939697 431.85165527 -6.39879395 431.89081055 -7.11938477 431.93115234 C-10.44118492 431.88628568 -10.44118492 431.88628568 -13.1875 433.375 C-13.27508003 435.37464982 -13.29446576 437.3773611 -13.28515625 439.37890625 C-13.28193359 440.59384766 -13.27871094 441.80878906 -13.27539062 443.06054688 C-13.26701172 444.33994141 -13.25863281 445.61933594 -13.25 446.9375 C-13.24323242 448.86239258 -13.24323242 448.86239258 -13.23632812 450.82617188 C-13.22449545 454.00916022 -13.20801068 457.19205762 -13.1875 460.375 C-3.1127946 465.57190686 7.15315768 463.37336984 17.8125 460.375 C19.16298039 457.67403923 18.94213577 455.54773483 18.9453125 452.52734375 C18.94660156 451.36525391 18.94789063 450.20316406 18.94921875 449.00585938 C18.94341797 447.17764648 18.94341797 447.17764648 18.9375 445.3125 C18.94136719 444.08982422 18.94523437 442.86714844 18.94921875 441.60742188 C18.94728516 439.8662207 18.94728516 439.8662207 18.9453125 438.08984375 C18.94362061 436.48290649 18.94362061 436.48290649 18.94189453 434.84350586 C19.09147746 432.43093649 19.09147746 432.43093649 17.8125 431.375 C10.22043756 430.9868344 2.58346884 431.36777716 -5 431.8125 Z " transform="translate(421.1875,166.625)" style="fill: #2E3C40;"/><path d="M0 0 C1.14025635 0.00410889 2.2805127 0.00821777 3.45532227 0.01245117 C5.41659058 0.01426392 5.41659058 0.01426392 7.41748047 0.01611328 C8.86890141 0.02865813 10.32031748 0.04177745 11.77172852 0.05541992 C13.27327302 0.06301127 14.77481936 0.07024648 16.27636719 0.07714844 C28.90145251 0.1538165 41.5247007 0.40244738 54.14672852 0.68041992 C55.05961639 0.69988678 55.97250427 0.71935364 56.91305542 0.7394104 C65.20567306 0.9212296 73.50118858 1.12676969 81.78344727 1.59057617 C83.23303833 1.66997437 83.23303833 1.66997437 84.71191406 1.75097656 C87.82431267 2.33485918 89.77560432 3.39339467 92.33422852 5.24291992 C94.8395379 9.00088399 94.62277686 11.95511945 94.60888672 16.30688477 C94.61399765 17.12834488 94.61910858 17.94980499 94.62437439 18.79615784 C94.63829005 21.51546487 94.63731196 24.23451898 94.63500977 26.95385742 C94.638896 28.84331354 94.64323052 30.73276879 94.647995 32.6222229 C94.65546173 36.58501007 94.65516293 40.54770816 94.64990234 44.51049805 C94.64411121 49.58708328 94.66102789 54.66330326 94.68424702 59.73982811 C94.69898543 63.64319997 94.69985584 67.54648394 94.69673729 71.44987869 C94.69725058 73.32136381 94.70248983 75.19285383 94.71254921 77.06431198 C94.72489653 79.68317057 94.71813199 82.30131866 94.70654297 84.92016602 C94.71418671 85.69228928 94.72183044 86.46441254 94.72970581 87.25993347 C94.68571379 91.76142581 94.1292772 94.66886343 91.33422852 98.24291992 C87.15360374 100.78744498 83.00632595 100.33614013 78.29907227 99.96166992 C77.5139476 99.90845581 76.72882294 99.8552417 75.91990662 99.80041504 C73.39038993 99.62600323 70.86245539 99.43505144 68.33422852 99.24291992 C66.66648044 99.12361801 64.99867421 99.00512616 63.33081055 98.88745117 C57.31779265 98.45821546 51.30685634 98.00220872 45.29589844 97.54516602 C35.05502881 96.76903617 24.8204549 96.05702017 14.55995178 95.59350586 C-1.57317088 94.82835284 -1.57317088 94.82835284 -6.66577148 89.24291992 C-8.0335146 85.52288682 -7.82072127 81.61919007 -7.8269043 77.70800781 C-7.83435165 76.57801109 -7.83435165 76.57801109 -7.84194946 75.42518616 C-7.85652821 72.93864014 -7.86336502 70.45215787 -7.86889648 67.96557617 C-7.87465037 66.23449197 -7.88040807 64.50340778 -7.88616943 62.77232361 C-7.89666644 59.14508773 -7.90251798 55.51787393 -7.90600586 51.890625 C-7.91149551 47.24566846 -7.93553897 42.60100432 -7.96397781 37.95613956 C-7.98260928 34.3813339 -7.98781001 30.8065987 -7.98934174 27.23174858 C-7.99236638 25.51934646 -8.00038857 23.80694553 -8.01352692 22.09459114 C-8.03060236 19.69857664 -8.02870405 17.3032774 -8.0222168 14.90722656 C-8.03143158 14.20212952 -8.04064636 13.49703247 -8.05014038 12.77056885 C-8.00357655 7.27405766 -6.31739802 0.57567644 0 0 Z M-0.66577148 7.24291992 C-0.68890877 17.37831069 -0.70669367 27.51369521 -0.71758366 37.64910698 C-0.72280944 42.35502935 -0.72990159 47.0609337 -0.74121094 51.7668457 C-0.7520506 56.30555525 -0.75805062 60.84424742 -0.76064873 65.3829689 C-0.76250102 67.11737466 -0.76611791 68.85177943 -0.77150154 70.58617783 C-0.77872627 73.00937733 -0.77976182 75.4325044 -0.77929688 77.85571289 C-0.78289215 78.57787994 -0.78648743 79.300047 -0.79019165 80.0440979 C-0.83746394 83.7679943 -0.83746394 83.7679943 0.33422852 87.24291992 C2.95219269 87.73698843 2.95219269 87.73698843 6.1730957 87.92895508 C8.05336456 88.07888412 8.05336456 88.07888412 9.97161865 88.23184204 C11.35808261 88.33231744 12.74457858 88.43235193 14.13110352 88.53198242 C15.5591487 88.64061791 16.98714705 88.74987067 18.4151001 88.85971069 C21.42775977 89.08928015 24.44082536 89.31205648 27.4543457 89.5300293 C31.25296295 89.80520015 35.05022222 90.0955454 38.84732819 90.39075089 C55.03237823 91.64311172 71.0897335 92.5591012 87.33422852 92.24291992 C87.3573645 81.58599367 87.37515004 70.92907337 87.38604069 60.27212715 C87.39126676 55.3240686 87.39835942 50.3760272 87.40966797 45.42797852 C87.42050662 40.65585028 87.42650744 35.88373856 87.42910576 31.11159897 C87.43095824 29.28787857 87.43457548 27.46415911 87.43995857 25.64044571 C87.44718195 23.09271517 87.4482189 20.54505353 87.44775391 17.99731445 C87.45314682 16.85795944 87.45314682 16.85795944 87.45864868 15.69558716 C87.52266447 11.84218398 87.52266447 11.84218398 86.33422852 8.24291992 C57.32708702 7.49746949 28.35035674 7.12948325 -0.66577148 7.24291992 Z " transform="translate(731.665771484375,458.757080078125)" style="fill: #313F43;"/><path d="M0 0 C1.29115219 -0.0335408 2.58230438 -0.0670816 3.9125824 -0.10163879 C7.78833175 0.41348353 8.88910381 1.28318938 11.22875977 4.33911133 C12.71812993 7.31785166 12.38476875 10.36417958 12.38989258 13.63110352 C12.39733994 14.75825272 12.39733994 14.75825272 12.40493774 15.90817261 C12.41957385 18.40078643 12.42636471 20.89333655 12.43188477 23.38598633 C12.43763622 25.11753339 12.44339396 26.84908042 12.44915771 28.58062744 C12.45967264 32.21561988 12.46551169 35.85059019 12.46899414 39.4855957 C12.47447167 44.13723771 12.49848166 48.78858594 12.52696609 53.44013596 C12.54561872 57.01927536 12.55079953 60.59834448 12.55233002 64.17752838 C12.55535252 65.89189505 12.56336748 67.60626061 12.5765152 69.32057953 C12.59362641 71.7237915 12.59168301 74.12629234 12.58520508 76.52954102 C12.59441986 77.23418488 12.60363464 77.93882874 12.61312866 78.66482544 C12.57439434 83.26678486 11.75294412 86.47793557 9.22875977 90.33911133 C3.08663041 92.66530502 -3.32207311 92.81499968 -9.83764648 93.15551758 C-11.42801224 93.24746147 -11.42801224 93.24746147 -13.05050659 93.34126282 C-16.47783433 93.53664785 -19.90565321 93.72007039 -23.33374023 93.90161133 C-25.68734 94.02997875 -28.04093699 94.1583969 -30.39453125 94.28686523 C-36.14783098 94.59697916 -41.9017254 94.89343382 -47.65612793 95.18231201 C-50.49120287 95.32501563 -53.32605413 95.4715118 -56.16088867 95.61889648 C-60.50934298 95.84190736 -64.85832122 96.03339211 -69.20874023 96.21411133 C-71.0593103 96.30607788 -71.0593103 96.30607788 -72.94726562 96.39990234 C-74.06351318 96.43913818 -75.17976074 96.47837402 -76.32983398 96.51879883 C-77.74220337 96.57656494 -77.74220337 96.57656494 -79.18310547 96.63549805 C-82.45009814 96.26137022 -84.16670416 95.33768306 -86.77124023 93.33911133 C-89.8057588 89.28055797 -90.14985143 86.27005033 -90.15942383 81.25732422 C-90.16468079 80.56397476 -90.16993774 79.87062531 -90.175354 79.15626526 C-90.1885091 76.87453379 -90.17983142 74.59350561 -90.16967773 72.31176758 C-90.1717 70.71902839 -90.17461272 69.12629011 -90.17837524 67.53355408 C-90.18279269 64.19887457 -90.17638721 60.86443654 -90.16235352 57.52978516 C-90.14527571 53.26490802 -90.15509728 49.00059789 -90.17307091 44.73574162 C-90.18393639 41.44738023 -90.18044954 38.15915218 -90.17268753 34.87078667 C-90.17069243 33.29878102 -90.17312047 31.7267631 -90.18012619 30.1547718 C-90.18778495 27.95295507 -90.17607536 25.75204273 -90.15942383 23.55029297 C-90.15703705 22.2996254 -90.15465027 21.04895782 -90.15219116 19.76039124 C-89.72797296 15.95053254 -88.83884475 13.55741626 -86.77124023 10.33911133 C-80.23065182 5.85924433 -70.0635419 6.26293056 -62.36108398 5.51489258 C-60.86521191 5.36290869 -59.36940915 5.21024133 -57.87367249 5.05693054 C-54.74680383 4.7387323 -51.61933078 4.42771714 -48.49121094 4.12207031 C-44.5289601 3.73450279 -40.56856387 3.33079939 -36.60848141 2.92173481 C-33.51938586 2.60423397 -30.42952531 2.29474948 -27.33938789 1.98756981 C-25.88148409 1.84187964 -24.42379328 1.69403811 -22.96635246 1.543787 C-15.32217735 0.76089948 -7.68347921 0.1715733 0 0 Z M-15.70117188 7.94995117 C-16.38914856 8.01501358 -17.07712524 8.08007599 -17.78594971 8.14710999 C-20.00176423 8.35842863 -22.2165567 8.57876588 -24.43139648 8.80004883 C-25.99504015 8.95252019 -27.55871575 9.10466442 -29.12242126 9.25650024 C-32.37094388 9.57345437 -35.61896245 9.89506663 -38.86669922 10.2199707 C-43.02504875 10.63547776 -47.18454937 11.03789742 -51.34452152 11.43678856 C-54.56125359 11.74687387 -57.77722056 12.06437851 -60.99300957 12.38408279 C-62.52735107 12.53561167 -64.06193536 12.68470326 -65.59675789 12.83127975 C-67.73396576 13.03638382 -69.86992055 13.25161013 -72.00585938 13.46948242 C-73.21907364 13.58939545 -74.4322879 13.70930847 -75.68226624 13.83285522 C-79.04016284 14.22635027 -79.04016284 14.22635027 -82.77124023 16.33911133 C-82.77124023 40.09911133 -82.77124023 63.85911133 -82.77124023 88.33911133 C-76.80067657 89.00250729 -71.59455231 89.44009833 -65.71289062 89.10131836 C-64.96376404 89.0640564 -64.21463745 89.02679443 -63.44281006 88.98840332 C-61.00107558 88.86506648 -58.56004715 88.73128386 -56.11889648 88.59692383 C-54.41021846 88.50769816 -52.70151325 88.41899199 -50.99278259 88.33078003 C-47.42966115 88.14526966 -43.866852 87.95479694 -40.30419922 87.76049805 C-35.73248803 87.51138857 -31.16030104 87.2728209 -26.58785343 87.0376606 C-23.06790149 86.85582157 -19.54819961 86.66948224 -16.02856255 86.48165512 C-14.34167032 86.39198762 -12.6547152 86.30349528 -10.96769905 86.21619034 C-8.61947727 86.09379166 -6.27164571 85.96558574 -3.92382812 85.83569336 C-3.22515121 85.80031464 -2.5264743 85.76493591 -1.80662537 85.72848511 C1.83359054 85.55030565 1.83359054 85.55030565 5.22875977 84.33911133 C5.22875977 58.92911133 5.22875977 33.51911133 5.22875977 7.33911133 C-5.3130856 7.30140496 -5.3130856 7.30140496 -15.70117188 7.94995117 Z " transform="translate(813.771240234375,256.660888671875)" style="fill: #324044;"/><path d="M0 0 C2.4063063 3.58320126 2.28965237 7.18476898 2.2746582 11.35131836 C2.27976913 12.08514236 2.28488007 12.81896637 2.29014587 13.57502747 C2.30402674 15.99671625 2.30308629 18.41811995 2.30078125 20.83984375 C2.30466898 22.52608852 2.30900381 24.21233231 2.31376648 25.89857483 C2.32122542 29.4316831 2.32093976 32.96469144 2.31567383 36.49780273 C2.30987928 41.02172193 2.32681126 45.5452317 2.3500185 50.06908321 C2.36476199 53.55125819 2.36562672 57.0333347 2.36250877 60.51553535 C2.36302167 62.18327203 2.36825342 63.85101426 2.37832069 65.51872063 C2.3906801 67.85251218 2.383897 70.18550796 2.37231445 72.51928711 C2.37995819 73.20568268 2.38760193 73.89207825 2.39547729 74.59927368 C2.34828646 78.90888406 1.83943876 81.70706948 -1 85 C-6.21456144 87.95701104 -10.50145358 88.42126693 -16.41040039 88.31225586 C-17.22108475 88.30936554 -18.0317691 88.30647522 -18.86701965 88.30349731 C-21.52761365 88.28959906 -24.18731037 88.25318682 -26.84765625 88.21484375 C-28.70657125 88.19694106 -30.56549401 88.1798279 -32.42442322 88.16346741 C-36.31219922 88.12552621 -40.19962046 88.07605917 -44.0871582 88.01879883 C-49.06247178 87.94672382 -54.03746055 87.90641789 -59.01317692 87.87511349 C-62.8490043 87.8469529 -66.68444462 87.80040954 -70.52001762 87.74850655 C-72.35432063 87.72617574 -74.18870769 87.70988312 -76.02311897 87.69981194 C-78.5890758 87.68326961 -81.15345984 87.64157499 -83.71899414 87.59350586 C-84.47188721 87.59382309 -85.22478027 87.59414032 -86.00048828 87.59446716 C-91.11104305 87.46217019 -94.10875772 86.3024585 -98 83 C-100.51431846 79.62700964 -100.26513325 76.23506407 -100.29052734 72.12353516 C-100.30060318 71.09836037 -100.30060318 71.09836037 -100.31088257 70.05247498 C-100.32984679 67.79792975 -100.33378594 65.54368248 -100.3359375 63.2890625 C-100.34236665 61.71731444 -100.3490951 60.14556758 -100.35610962 58.57382202 C-100.3680785 55.28030626 -100.37179086 51.98689535 -100.37060547 48.69335938 C-100.37040232 44.48105829 -100.39770088 40.26943222 -100.43214989 36.05729103 C-100.45443032 32.81097347 -100.45844267 29.56481804 -100.45738602 26.31843185 C-100.45974039 24.76594085 -100.46855481 23.21344527 -100.48405075 21.66102982 C-100.50373478 19.48529581 -100.49786493 17.31101326 -100.48583984 15.13525391 C-100.4901149 13.28137558 -100.4901149 13.28137558 -100.49447632 11.39004517 C-99.90447012 7.3450635 -98.53598958 5.16787172 -96 2 C-88.09991014 -1.95004493 -76.29109943 -0.4196798 -67.5546875 -0.7890625 C-65.97388464 -0.85723209 -64.39308431 -0.92546029 -62.81228638 -0.9937439 C-59.51605668 -1.13530777 -56.21973367 -1.27442346 -52.92333984 -1.41210938 C-48.71586575 -1.58829544 -44.5088297 -1.77331195 -40.3018322 -1.96048927 C-37.04365566 -2.10400682 -33.78524345 -2.24146376 -30.52673721 -2.37726974 C-28.97582823 -2.44288149 -27.42500901 -2.51065474 -25.87429428 -2.58070755 C-23.70270589 -2.67816979 -21.5309191 -2.76707869 -19.35888672 -2.85400391 C-18.12774139 -2.90650299 -16.89659607 -2.95900208 -15.62814331 -3.01309204 C-4.06608625 -2.97137072 -4.06608625 -2.97137072 0 0 Z M-28.9140625 5.18359375 C-30.55584976 5.21333031 -30.55584976 5.21333031 -32.23080444 5.2436676 C-34.53164825 5.28591789 -36.83248038 5.32880815 -39.13330078 5.37231445 C-42.59532819 5.43694607 -46.05741737 5.49684719 -49.51953125 5.55664062 C-59.44064649 5.73633425 -69.36137694 5.93562821 -79.2734375 6.41015625 C-80.33372665 6.45323158 -80.33372665 6.45323158 -81.41543579 6.49717712 C-85.79903097 6.73645663 -88.67047569 7.55682523 -93 9 C-93 32.1 -93 55.2 -93 79 C-89.89151478 79.7771213 -87.70251973 80.14152872 -84.58740234 80.20532227 C-83.71530624 80.22526245 -82.84321014 80.24520264 -81.94468689 80.26574707 C-81.00129959 80.2824646 -80.05791229 80.29918213 -79.0859375 80.31640625 C-78.09473404 80.33723267 -77.10353058 80.35805908 -76.08229065 80.3795166 C-72.84660507 80.44561492 -69.6108387 80.50441894 -66.375 80.5625 C-64.15698238 80.60538517 -61.9389648 80.64827255 -59.72094727 80.69116211 C-41.81266949 81.02366355 -23.91075537 81.12128337 -6 81 C-4.50717607 78.01435214 -4.88083023 75.31016282 -4.88647461 71.97998047 C-4.88632858 71.25792419 -4.88618256 70.53586792 -4.8860321 69.79193115 C-4.88672993 67.40031959 -4.89451625 65.00878549 -4.90234375 62.6171875 C-4.90420839 60.96094811 -4.90563208 59.30470816 -4.90663147 57.64846802 C-4.91045301 53.28532392 -4.92028022 48.922213 -4.93133545 44.55908203 C-4.94155736 40.10840301 -4.94613076 35.65771863 -4.95117188 31.20703125 C-4.9619028 22.47133892 -4.97897488 13.73567359 -5 5 C-12.97374004 4.97667142 -20.94170671 5.03700804 -28.9140625 5.18359375 Z " transform="translate(824,362)" style="fill: #313F42;"/><path d="M0 0 C2.72349399 3.84135798 2.29547086 8.20119284 2.29052734 12.71240234 C2.29724457 13.59092361 2.30396179 14.46944489 2.31088257 15.37458801 C2.32987837 18.27842873 2.33378756 21.18203852 2.3359375 24.0859375 C2.3423643 26.10609024 2.34909257 28.12624204 2.35610962 30.14639282 C2.36808632 34.38147133 2.37179003 38.61646825 2.37060547 42.8515625 C2.37040225 48.27448449 2.39770558 53.69688257 2.43214989 59.1196804 C2.45440315 63.29245398 2.45844349 67.46510117 2.45738602 71.63792801 C2.4597443 73.63698762 2.46858059 75.63605059 2.48405075 77.63505173 C2.50367881 80.43334235 2.4978852 83.23049915 2.48583984 86.02880859 C2.49707886 86.85186996 2.50831787 87.67493134 2.51989746 88.52293396 C2.462235 93.80292575 1.49343712 96.80482476 -2 101 C-4.03442383 102.25878906 -4.03442383 102.25878906 -6.39453125 103.015625 C-7.84980225 103.48258789 -7.84980225 103.48258789 -9.33447266 103.95898438 C-16.78519763 106.07500218 -24.25675188 108.0874181 -31.76196289 110.00146484 C-34.69389832 110.75163709 -37.62130645 111.51796393 -40.54882812 112.28515625 C-42.43203839 112.76921561 -44.31549395 113.25232184 -46.19921875 113.734375 C-47.06399338 113.96243835 -47.92876801 114.19050171 -48.81974792 114.42547607 C-54.02605096 115.73413196 -58.62713542 116.38094384 -64 116 C-67.24692172 113.66887671 -68.25456465 111.82925541 -69 108 C-69.09033383 106.65539046 -69.13461341 105.30714637 -69.14044189 103.95951843 C-69.14615204 103.16479126 -69.15186218 102.37006409 -69.15774536 101.55125427 C-69.15942215 100.25684166 -69.15942215 100.25684166 -69.16113281 98.9362793 C-69.16609772 98.02035004 -69.17106262 97.10442078 -69.17617798 96.16073608 C-69.19077788 93.13188932 -69.19759797 90.10309492 -69.203125 87.07421875 C-69.2088782 84.9667816 -69.21463591 82.85934447 -69.22039795 80.75190735 C-69.23090173 76.33273068 -69.23674849 71.91357216 -69.24023438 67.49438477 C-69.24571803 61.83850328 -69.26974608 56.18286266 -69.29820633 50.52705669 C-69.31685198 46.17325647 -69.32203934 41.81951404 -69.32357025 37.46567726 C-69.3265929 35.38092545 -69.33460831 33.29617457 -69.34775543 31.21146202 C-69.36485614 28.29142424 -69.36292577 25.37197217 -69.35644531 22.4519043 C-69.3656601 21.59503525 -69.37487488 20.7381662 -69.3843689 19.85533142 C-69.34174152 13.70758531 -68.32345562 9.1899421 -64.62518311 4.11247253 C-62.41003085 2.59615352 -60.66496766 2.44508417 -57.99707031 2.20043945 C-56.46968231 2.0506237 -56.46968231 2.0506237 -54.91143799 1.89778137 C-53.26144806 1.75695381 -53.26144806 1.75695381 -51.578125 1.61328125 C-50.44477722 1.50654587 -49.31142944 1.39981049 -48.14373779 1.2898407 C-44.51352399 0.95150737 -40.88189598 0.63221254 -37.25 0.3125 C-34.81760041 0.08644477 -32.38530691 -0.14075521 -29.953125 -0.36914062 C-27.61988677 -0.58436682 -25.28655594 -0.79859206 -22.953125 -1.01171875 C-21.86122864 -1.11167648 -20.76933228 -1.21163422 -19.64434814 -1.31462097 C-3.6666973 -2.71607208 -3.6666973 -2.71607208 0 0 Z M-19.3203125 5.44311523 C-20.72591431 5.58842934 -20.72591431 5.58842934 -22.15991211 5.73667908 C-23.62763062 5.89602684 -23.62763062 5.89602684 -25.125 6.05859375 C-26.66716187 6.22150658 -26.66716187 6.22150658 -28.24047852 6.38771057 C-30.39542949 6.61659111 -32.5501321 6.84782114 -34.70458984 7.08129883 C-38.0172067 7.43935987 -41.33076382 7.78753213 -44.64453125 8.13476562 C-46.74225024 8.35878833 -48.83990885 8.5833772 -50.9375 8.80859375 C-51.93217285 8.91280136 -52.9268457 9.01700897 -53.95166016 9.12437439 C-54.86351074 9.22440262 -55.77536133 9.32443085 -56.71484375 9.42749023 C-57.52042725 9.51409409 -58.32601074 9.60069794 -59.15600586 9.68992615 C-61.01207124 9.81871765 -61.01207124 9.81871765 -62 11 C-62.09529612 14.01350238 -62.12551904 17.00404106 -62.11352539 20.01782227 C-62.11367142 20.96406464 -62.11381744 21.91030701 -62.1139679 22.88522339 C-62.11326836 26.02897392 -62.10547409 29.17266601 -62.09765625 32.31640625 C-62.09579221 34.48974068 -62.09436824 36.66307552 -62.09336853 38.83641052 C-62.08954221 44.56901195 -62.07971097 50.30158823 -62.06866455 56.03417969 C-62.05845287 61.87890279 -62.05387143 67.72362993 -62.04882812 73.56835938 C-62.0380888 85.045584 -62.02101102 96.52278991 -62 108 C-55.56178879 108.10652001 -55.56178879 108.10652001 -49.23974609 107.0378418 C-48.39882416 106.8272966 -47.55790222 106.6167514 -46.6914978 106.39982605 C-45.37080795 106.05302544 -45.37080795 106.05302544 -44.0234375 105.69921875 C-42.63011703 105.34365654 -42.63011703 105.34365654 -41.20864868 104.98091125 C-39.2560706 104.4802652 -37.30469452 103.9749099 -35.35449219 103.46508789 C-32.38002568 102.6888116 -29.40144268 101.93025924 -26.421875 101.17382812 C-24.51795925 100.68333821 -22.61430396 100.19183592 -20.7109375 99.69921875 C-19.82642914 99.47409103 -18.94192078 99.24896332 -18.03060913 99.01701355 C-17.19599152 98.79701187 -16.3613739 98.57701019 -15.50146484 98.3503418 C-14.41180923 98.06721382 -14.41180923 98.06721382 -13.30014038 97.77836609 C-10.42065369 96.80394956 -7.71896027 95.35948013 -5 94 C-5 64.63 -5 35.26 -5 5 C-12.22298918 4.96518464 -12.22298918 4.96518464 -19.3203125 5.44311523 Z " transform="translate(461,462)" style="fill: #344145;"/><path d="M0 0 C8.60123301 1.42008175 17.15073734 2.70256116 25.85595703 3.26513672 C30.51279633 3.6650064 33.0974554 4.77981376 36.375 8.125 C37.54268682 11.62806045 37.53799488 14.79334159 37.55200195 18.4387207 C37.55857315 19.18054596 37.56514435 19.92237122 37.57191467 20.68667603 C37.5916234 23.14137882 37.6033046 25.59602052 37.61328125 28.05078125 C37.61735678 28.89004843 37.6214323 29.72931561 37.62563133 30.59401512 C37.64648137 35.03590015 37.66078789 39.47775437 37.67016602 43.91967773 C37.68123047 48.50300026 37.71563357 53.0858373 37.75533772 57.66898823 C37.78150475 61.19751375 37.78985789 64.72592357 37.79344749 68.25453758 C37.79831296 69.94380155 37.80992586 71.63306037 37.82848549 73.32222939 C37.85288051 75.68957448 37.85191187 78.05566292 37.8449707 80.4230957 C37.85778076 81.11681778 37.87059082 81.81053986 37.88378906 82.52528381 C37.83090613 87.48930027 36.46879449 90.2953013 33.375 94.125 C28.84235197 96.98844883 23.06995999 96.68219301 17.8515625 96.9765625 C16.83202484 97.04032074 15.81248718 97.10407898 14.76205444 97.16976929 C12.60885982 97.30295043 10.45541527 97.43214267 8.30175781 97.55761719 C5.01832552 97.74893223 1.7357415 97.95145569 -1.546875 98.15625 C-3.6431892 98.2845091 -5.73954231 98.41213414 -7.8359375 98.5390625 C-9.30031754 98.62808334 -9.30031754 98.62808334 -10.79428101 98.71890259 C-26.74390495 99.64392899 -26.74390495 99.64392899 -31.625 96.125 C-33.50810354 91.04102742 -33.91781337 86.26370994 -33.8996582 80.89819336 C-33.90476913 80.10701614 -33.90988007 79.31583893 -33.91514587 78.50068665 C-33.92895985 75.90532713 -33.92809182 73.31023548 -33.92578125 70.71484375 C-33.92967169 68.90076093 -33.93400707 67.08667901 -33.93876648 65.27259827 C-33.9462103 61.47914672 -33.94595003 57.6857883 -33.94067383 53.89233398 C-33.93487088 49.03791492 -33.95183897 44.18387637 -33.9750185 39.32952023 C-33.98976551 35.58653039 -33.99062641 31.84363211 -33.98750877 28.10061836 C-33.98802114 26.31090095 -33.99324305 24.5211783 -34.00332069 22.73148918 C-34.0156915 20.22821286 -34.00889071 17.72567704 -33.99731445 15.22241211 C-34.00495819 14.48822052 -34.01260193 13.75402893 -34.02047729 12.99758911 C-33.97268498 8.30924209 -33.10701434 5.10320196 -30.625 1.125 C-22.51335372 -5.11472791 -9.31206565 -1.59567186 0 0 Z M-26.625 6.125 C-26.625 34.175 -26.625 62.225 -26.625 91.125 C-6.86862455 91.1801972 -6.86862455 91.1801972 12.80249023 90.32543945 C14.8957933 90.18178389 16.98969608 90.05225485 19.08398438 89.92382812 C25.20579018 90.12479255 25.20579018 90.12479255 30.375 88.125 C30.46994733 85.75199131 30.50059319 83.40821297 30.48852539 81.03491211 C30.48867142 80.29349472 30.48881744 79.55207733 30.4889679 78.78819275 C30.48826865 76.32621379 30.48047574 73.86430957 30.47265625 71.40234375 C30.47079211 69.69983461 30.46936819 67.99732493 30.46836853 66.29481506 C30.46454302 61.80506927 30.45471247 57.31535562 30.44366455 52.82562256 C30.43345113 48.24768509 30.42887106 43.66974244 30.42382812 39.09179688 C30.41309022 30.10285043 30.39601341 21.11392788 30.375 12.125 C19.13689108 9.75582879 19.13689108 9.75582879 7.76953125 8.17578125 C6.51849609 8.05009766 5.26746094 7.92441406 3.97851562 7.79492188 C2.72748047 7.67697266 1.47644531 7.55902344 0.1875 7.4375 C-1.07513672 7.30794922 -2.33777344 7.17839844 -3.63867188 7.04492188 C-11.41664305 6.28521306 -18.72186711 6.125 -26.625 6.125 Z " transform="translate(425.625,352.875)" style="fill: #364347;"/><path d="M0 0 C1.34238312 0.36514715 2.68483148 0.73005454 4.02734375 1.09472656 C6.66028464 1.81195117 9.29170568 2.53439778 11.921875 3.26171875 C14.09769083 3.86268098 16.27451704 4.46002116 18.453125 5.05078125 C20.80555813 5.68878963 23.15351137 6.34052229 25.5 7 C26.7375 7.34546875 27.975 7.6909375 29.25 8.046875 C34.13194848 9.85413477 37.5962387 11.89435805 40.5 16.25 C40.70423275 18.7851267 40.79372645 21.21132763 40.79052734 23.74731445 C40.79724457 24.50864685 40.80396179 25.26997925 40.81088257 26.05438232 C40.82989713 28.57408152 40.83378873 31.09351475 40.8359375 33.61328125 C40.84236396 35.36582041 40.8490922 37.11835849 40.85610962 38.87089539 C40.86809168 42.54701219 40.87178958 46.22303496 40.87060547 49.89916992 C40.87040244 54.60359124 40.89768371 59.30740737 40.93214989 64.01168537 C40.95442022 67.63287611 40.95844294 71.25392137 40.95738602 74.87517357 C40.95974258 76.60908274 40.96856926 78.34299588 40.98405075 80.07683754 C41.00371023 82.50648576 40.99787329 84.93483147 40.98583984 87.36450195 C40.99707886 88.07692551 41.00831787 88.78934906 41.01989746 89.52336121 C40.95726898 94.51506949 39.84647347 97.53728953 36.5 101.25 C34.09616089 101.87960815 34.09616089 101.87960815 31.44873047 101.70263672 C30.47611267 101.64799255 29.50349487 101.59334839 28.50140381 101.53704834 C27.51094055 101.44232239 26.52047729 101.34759644 25.5 101.25 C24.58994202 101.16993713 23.67988403 101.08987427 22.74224854 101.00738525 C19.92709662 100.7219308 17.12596891 100.37471899 14.3203125 100.0078125 C13.30452118 99.87937958 12.28872986 99.75094666 11.24215698 99.61862183 C9.1157568 99.34792956 6.98978991 99.07381301 4.86425781 98.79638672 C1.61385042 98.37354958 -1.63817599 97.96539464 -4.890625 97.55859375 C-6.96625787 97.2925393 -9.04178293 97.02564202 -11.1171875 96.7578125 C-12.5688179 96.57643234 -12.5688179 96.57643234 -14.04977417 96.39138794 C-24.62684538 94.98935786 -24.62684538 94.98935786 -28.25 91.625 C-31.09320537 86.2229098 -30.65144584 79.26628374 -30.66113281 73.27685547 C-30.66609772 72.52454651 -30.67106262 71.77223755 -30.67617798 70.99713135 C-30.69064685 68.53714042 -30.69757267 66.07721377 -30.703125 63.6171875 C-30.70595238 62.77147312 -30.70877975 61.92575874 -30.71169281 61.05441666 C-30.72661649 56.58656762 -30.73589136 52.11875037 -30.74023438 47.65087891 C-30.74573617 43.0464916 -30.76981939 38.44239743 -30.79820633 33.83810234 C-30.81684646 30.28471014 -30.82203885 26.73138877 -30.82357025 23.17795181 C-30.82658975 21.48033149 -30.83459451 19.78271222 -30.84775543 18.08514023 C-30.86485934 15.71131762 -30.86292638 13.33821512 -30.85644531 10.96435547 C-30.8656601 10.26913788 -30.87487488 9.57392029 -30.8843689 8.8576355 C-30.84526035 4.27210503 -29.89581808 1.1511013 -27.5 -2.75 C-20.28654951 -7.876108 -7.66938208 -2.10855686 0 0 Z M-23.5 2.25 C-23.5 29.97 -23.5 57.69 -23.5 86.25 C-15.71888378 88.86831732 -15.71888378 88.86831732 -7.9453125 90.3828125 C-6.75164062 90.54910156 -5.55796875 90.71539062 -4.328125 90.88671875 C-3.10609375 91.04785156 -1.8840625 91.20898438 -0.625 91.375 C0.55835938 91.54386719 1.74171875 91.71273437 2.9609375 91.88671875 C13.20302735 93.27640402 23.0803747 93.70159867 33.5 94.25 C33.5 69.17 33.5 44.09 33.5 18.25 C22.2771491 13.92589137 22.2771491 13.92589137 10.875 10.35546875 C10.03960693 10.11838699 9.20421387 9.88130524 8.34350586 9.63703918 C6.60697565 9.14602107 4.86958455 8.65803742 3.13134766 8.1730957 C0.47410141 7.43026002 -2.17898948 6.67371422 -4.83203125 5.91601562 C-6.53362418 5.43668283 -8.2354393 4.9581379 -9.9375 4.48046875 C-10.72398926 4.25554245 -11.51047852 4.03061615 -12.32080078 3.7988739 C-13.05927246 3.59478409 -13.79774414 3.39069427 -14.55859375 3.18041992 C-15.20111084 3.00008713 -15.84362793 2.81975433 -16.50561523 2.63395691 C-18.97980529 2.09246045 -18.97980529 2.09246045 -23.5 2.25 Z " transform="translate(422.5,243.75)" style="fill: #354346;"/><path d="M0 0 C11.25089469 -0.68722326 21.49922428 1.12267898 32.47137451 3.35784912 C36.93538534 4.26682468 41.40528844 5.1452937 45.87478638 6.02682495 C48.38833179 6.52296386 50.90156679 7.02067747 53.41452026 7.51980591 C64.24010949 9.66873768 75.0787902 11.7460281 85.921875 13.8046875 C86.78920321 13.96936712 87.65653141 14.13404675 88.55014229 14.30371666 C92.11241574 14.97990121 95.67474829 15.65577321 99.23716068 16.3312254 C109.16319365 18.2133218 119.0875789 20.10404391 129.01171875 21.99609375 C129.89675016 22.16481806 130.78178158 22.33354237 131.69363213 22.50737953 C148.49932958 25.71157502 165.30469115 28.91748849 182.10455322 32.15216064 C184.81316451 32.67356416 187.52211484 33.193148 190.23138428 33.71112061 C193.91930659 34.41697753 197.60626008 35.12767937 201.29296875 35.83984375 C202.37713577 36.04634048 203.4613028 36.25283722 204.57832336 36.46559143 C206.038451 36.74933876 206.038451 36.74933876 207.52807617 37.03881836 C208.37391769 37.20151718 209.21975922 37.364216 210.0912323 37.53184509 C212 38 212 38 213 39 C213.04080783 40.99958364 213.04254356 43.00045254 213 45 C204.70747831 45.32826543 197.04736287 44.36825821 188.9140625 42.80859375 C187.6918399 42.58207626 186.46961731 42.35555878 185.21035767 42.12217712 C181.47139626 41.42579439 177.73545264 40.7149416 174 40 C172.91521362 39.79417297 171.83042725 39.58834595 170.71276855 39.37628174 C164.3909306 38.17610588 158.0735288 36.95402499 151.7578125 35.72207642 C145.65993077 34.53311931 139.56052684 33.35203628 133.4609375 32.171875 C132.81308037 32.04650171 132.16522324 31.92112843 131.49773407 31.79195595 C115.61412371 28.71973316 99.71670379 25.72082458 83.81915283 22.72174072 C39.24182155 14.31207012 39.24182155 14.31207012 20.62255859 10.69662476 C18.89390608 10.36103653 17.16506873 10.02639889 15.43603516 9.69277954 C13.14424206 9.25009614 10.85324117 8.80355895 8.5625 8.35546875 C6.70818359 7.99424927 6.70818359 7.99424927 4.81640625 7.62573242 C2 7 2 7 0 6 C0 4.02 0 2.04 0 0 Z " transform="translate(156,539)" style="fill: #344245;"/><path d="M0 0 C2.19921875 1.10546875 2.19921875 1.10546875 4 3 C4.4609375 6.06640625 4.4609375 6.06640625 4.375 9.5625 C4.36210937 10.71878906 4.34921875 11.87507812 4.3359375 13.06640625 C4 16 4 16 2 18 C-2.13237851 18.68607056 -5.81774997 18.6055427 -9.5625 16.6875 C-11.87726675 12.3598926 -11.46548206 7.80743768 -11 3 C-8.91945956 -1.16108089 -4.07605237 -0.28603876 0 0 Z " transform="translate(430,182)" style="fill: #28373B;"/><path d="M0 0 C0.78503906 0.00128906 1.57007813 0.00257813 2.37890625 0.00390625 C4.4375 0.4375 4.4375 0.4375 6.4375 3.4375 C6.80859375 6.25 6.80859375 6.25 6.875 9.4375 C6.91496094 10.489375 6.95492188 11.54125 6.99609375 12.625 C6.4375 15.4375 6.4375 15.4375 4.140625 17.32421875 C0.52579533 18.81298531 -1.81082158 18.35772301 -5.5625 17.4375 C-8.15450129 14.84549871 -7.86052368 13.66227771 -7.875 10.0625 C-7.89175781 9.10601563 -7.90851563 8.14953125 -7.92578125 7.1640625 C-7.24157285 2.02882095 -5.19006033 -0.1282552 0 0 Z " transform="translate(427.5625,604.5625)" style="fill: #2F3D41;"/><path d="M0 0 C1.875 0.43359375 1.875 0.43359375 3.875 2.30859375 C5.2704329 6.66932156 5.46769154 10.89219104 4.875 15.43359375 C3.885 16.91859375 3.885 16.91859375 2.875 18.43359375 C-4.1389165 19.1015858 -4.1389165 19.1015858 -7.0625 17.12109375 C-9.55221846 13.16683502 -9.59821834 8.95646908 -9.125 4.43359375 C-7.33388274 -0.0441994 -4.44567423 -0.26968244 0 0 Z " transform="translate(704.125,218.56640625)" style="fill: #314043;"/></svg>