<?xml version="1.0" encoding="UTF-8"?>
<svg version="1.1" xmlns="http://www.w3.org/2000/svg" viewBox="113 387 886 215">
<path d="M0 0 C5.2984023 2.44541645 10.42916319 5.35348797 15 9 C15 9.66 15 10.32 15 11 C15.5775 11.28875 16.155 11.5775 16.75 11.875 C18.83333333 12.91666667 20.91666667 13.95833333 23 15 C23 15.66 23 16.32 23 17 C24.32 17.33 25.64 17.66 27 18 C27 18.66 27 19.32 27 20 C28.11375 20.433125 28.11375 20.433125 29.25 20.875 C33.22630082 22.50166852 36.0209598 23.88554888 39 27 C39.66 27.33 40.32 27.66 41 28 C41 28.66 41 29.32 41 30 C41.70898438 30.24492187 42.41796875 30.48984375 43.1484375 30.7421875 C46.38472906 32.16970241 48.82810061 33.96136085 51.625 36.125 C52.67042969 36.92421875 53.71585938 37.7234375 54.79296875 38.546875 C55.3245459 38.95486328 55.85612305 39.36285156 56.40380859 39.78320312 C58.89147155 41.67958003 61.4119371 43.52952779 63.9375 45.375 C64.79214844 46.00148438 65.64679688 46.62796875 66.52734375 47.2734375 C69.00580781 49.06068469 69.00580781 49.06068469 71.81640625 50.6015625 C72.53699219 51.06304687 73.25757813 51.52453125 74 52 C74 52.66 74 53.32 74 54 C75.65 54.66 77.3 55.32 79 56 C76.51047079 53.33264727 74.36591866 51.44253657 71 50 C71 49.34 71 48.68 71 48 C70.38125 47.690625 69.7625 47.38125 69.125 47.0625 C67.75 46.375 66.375 45.6875 65 45 C64.55667358 42.68195337 64.2185966 40.34325909 63.9375 38 C63.77594868 33.67240322 63.77594868 33.67240322 62 30 C61.64351021 28.29637573 61.3410545 26.58136973 61.0625 24.86328125 C60.88976562 23.81076172 60.71703125 22.75824219 60.5390625 21.67382812 C60.36117187 20.56458984 60.18328125 19.45535156 60 18.3125 C59.82210937 17.22259766 59.64421875 16.13269531 59.4609375 15.00976562 C59.12706788 12.96294551 58.79486229 10.91585278 58.46484375 8.8684082 C57.98553432 5.91073675 57.49457715 2.95515316 57 0 C61.72578655 1.43074272 64.59920774 4.20907272 67.9375 7.6875 C68.46674072 8.22769775 68.99598145 8.76789551 69.54125977 9.32446289 C73.19710339 13.0840024 76.63462423 16.97796554 80 21 C81.36125 22.3303125 81.36125 22.3303125 82.75 23.6875 C84.76944439 25.76304007 85.91895003 27.34651371 87 30 C87.66 30 88.32 30 89 30 C89 30.66 89 31.32 89 32 C89.66 32 90.32 32 91 32 C91 32.66 91 33.32 91 34 C91.66 34 92.32 34 93 34 C93 34.66 93 35.32 93 36 C93.66 36 94.32 36 95 36 C96.3046875 37.328125 96.3046875 37.328125 97.875 39.25 C101.68659953 43.76565294 105.83247727 47.86942916 110.08740234 51.96191406 C111.42774345 53.27195774 112.71855875 54.63228766 114 56 C114 56.66 114 57.32 114 58 C114.66 58 115.32 58 116 58 C116 59.65 116 61.3 116 63 C113.0173094 64.52448631 110.181798 65.93940067 107 67 C107 67.66 107 68.32 107 69 C104.5 70.625 104.5 70.625 102 72 C102.99 72.99 103.98 73.98 105 75 C105 73.68 105 72.36 105 71 C106.010625 70.5875 107.02125 70.175 108.0625 69.75 C110.73188692 68.63507534 113.03107985 67.3468871 115.4375 65.75 C119.75120467 63.63098718 122.47650807 63.47296132 127 65 C128.70250393 66.28725907 130.37064759 67.62131719 132 69 C134.3181288 69.88147335 136.57718946 70.42992693 139 71 C139 71.66 139 72.32 139 73 C139.680625 73.103125 140.36125 73.20625 141.0625 73.3125 C144.62915989 74.14725019 147.66222194 75.49472754 151 77 C151 77.66 151 78.32 151 79 C153.64 79.33 156.28 79.66 159 80 C159 81.65 159 83.3 159 85 C157.76765625 85.16113281 156.5353125 85.32226562 155.265625 85.48828125 C142.75232822 87.43248759 136.5517581 90.7105503 128 100 C123.4 104 123.4 104 121 104 C121 104.66 121 105.32 121 106 C116.52941176 110 116.52941176 110 114 110 C114 110.66 114 111.32 114 112 C112.53309441 113.3327188 110.99677499 114.58913869 109.4375 115.8125 C104.7643346 119.55103232 100.19772601 123.37906813 95.6875 127.3125 C91.82739202 130.67609602 87.9659482 134.03691263 84.0703125 137.359375 C83.43907471 137.89780029 82.80783691 138.43622559 82.1574707 138.9909668 C80.96183624 140.00939991 79.76512486 141.0265706 78.56713867 142.04223633 C76.19816436 144.06166096 73.93051798 146.07366324 71.79296875 148.33984375 C70 150 70 150 67 150 C66.34 151.32 65.68 152.64 65 154 C64.34 154 63.68 154 63 154 C63 154.66 63 155.32 63 156 C61.68 156.33 60.36 156.66 59 157 C59 157.66 59 158.32 59 159 C54.52941176 163 54.52941176 163 52 163 C52 163.66 52 164.32 52 165 C50.06640625 166.65625 50.06640625 166.65625 47.5625 168.5 C44.25143208 170.79910263 44.25143208 170.79910263 42 174 C40.35 174 38.7 174 37 174 C37 172.68 37 171.36 37 170 C38 169 39 168 40 167 C41.1404407 164.70884436 42.05570538 162.38321975 43 160 C43.66 160 44.32 160 45 160 C45.1546875 158.9790625 45.1546875 158.9790625 45.3125 157.9375 C46.14725019 154.37084011 47.49472754 151.33777806 49 148 C49.66 148 50.32 148 51 148 C51.0825 147.360625 51.165 146.72125 51.25 146.0625 C52.2877846 141.82487956 53.90295033 137.83008317 56 134 C56.66 133.67 57.32 133.34 58 133 C58.12375 132.443125 58.2475 131.88625 58.375 131.3125 C59.48019173 127.2232906 62.03542605 123.96457395 65 121 C64.01 120.505 64.01 120.505 63 120 C63 120.66 63 121.32 63 122 C59.67962064 123.11496133 58.34726602 123.16092816 55.1171875 121.6640625 C54.04726562 120.99117187 52.97734375 120.31828125 51.875 119.625 C45.29726548 115.5883766 38.49980316 112.3396069 31.39794922 109.32275391 C26.36413152 107.06860216 23.49122947 105.16506216 21 100 C20.390625 97.0078125 20.390625 97.0078125 20.25 94.125 C20.19328125 93.15820312 20.1365625 92.19140625 20.078125 91.1953125 C20.05234375 90.47085938 20.0265625 89.74640625 20 89 C19.34 89 18.68 89 18 89 C17.87882812 88.2265625 17.75765625 87.453125 17.6328125 86.65625 C16.4856971 79.52648661 15.12581518 72.65889935 13 65.75 C11.87240976 61.52153659 11.18832799 57.30646386 10.5 52.98828125 C9.82461732 48.95181444 8.93053164 44.98383858 8 41 C6.93395466 36.30273771 5.91576666 31.60407628 5 26.875 C4.20481108 22.84314366 3.14832177 18.94735608 2 15 C0.69520948 9.92382865 -0.27088244 5.2822076 0 0 Z M82 58 C82 58.66 82 59.32 82 60 C83.32 60.33 84.64 60.66 86 61 C85.02149805 59.97895449 84.02019573 58.9793879 83 58 C82.67 58 82.34 58 82 58 Z M94 67 C94.66 67.66 95.32 68.32 96 69 C96 68.34 96 67.68 96 67 C95.34 67 94.68 67 94 67 Z " fill="#FFFFFF" transform="translate(134,408)"/>
<path d="M0 0 C5.94 0 11.88 0 18 0 C24.15087659 11.59591489 30.17285054 23.23779091 36 35 C36.33 23.45 36.66 11.9 37 0 C40.96 0 44.92 0 49 0 C49 17.49 49 34.98 49 53 C43.06 53 37.12 53 31 53 C29.13974276 49.64909327 27.2867981 46.29444995 25.4375 42.9375 C24.92380859 42.01388672 24.41011719 41.09027344 23.88085938 40.13867188 C19.52377396 32.20931767 15.8518393 24.25394135 12 16 C11.67 28.21 11.34 40.42 11 53 C7.37 53 3.74 53 0 53 C0 35.51 0 18.02 0 0 Z M37 37 C38 39 38 39 38 39 Z " fill="#FFFFFF" transform="translate(849,443)"/>
<path d="M0 0 C5.94 0 11.88 0 18 0 C24.83107708 12.1427418 31.20905486 24.32547856 37 37 C37.33 24.79 37.66 12.58 38 0 C41.63 0 45.26 0 49 0 C49 17.49 49 34.98 49 53 C43.06 53 37.12 53 31 53 C29.14425485 49.45915293 27.29038433 45.91734383 25.4375 42.375 C24.92380859 41.3953125 24.41011719 40.415625 23.88085938 39.40625 C19.82479535 31.64682316 15.91739885 23.8347977 12 16 C11.67 28.21 11.34 40.42 11 53 C7.37 53 3.74 53 0 53 C0 35.51 0 18.02 0 0 Z " fill="#FFFFFF" transform="translate(686,508)"/>
<path d="M0 0 C7.9509375 -0.0928125 7.9509375 -0.0928125 16.0625 -0.1875 C18.55115601 -0.22846802 18.55115601 -0.22846802 21.09008789 -0.27026367 C22.42593664 -0.27903707 23.7617935 -0.28667898 25.09765625 -0.29296875 C25.77437378 -0.30831665 26.45109131 -0.32366455 27.14831543 -0.33947754 C32.23396864 -0.342233 35.56908382 0.68207912 40 3 C43.91662393 7.41175629 44.52554269 10.74581285 44.4375 16.5625 C44.43621094 17.84253906 44.43492187 19.12257813 44.43359375 20.44140625 C43.86165099 25.13545895 42.29991758 27.70008242 39 31 C39.639375 31.598125 40.27875 32.19625 40.9375 32.8125 C44.59170688 36.68817396 44.12345001 40.66615717 44.0625 45.6875 C44.05798828 46.38939453 44.05347656 47.09128906 44.04882812 47.81445312 C44.03706927 49.54300538 44.01913454 51.27151365 44 53 C40.04 53 36.08 53 32 53 C31.8046875 50.00520833 31.609375 47.01041667 31.4140625 44.015625 C31.12548997 40.71533287 31.12548997 40.71533287 29 37 C23.39 36.67 17.78 36.34 12 36 C12 41.61 12 47.22 12 53 C8.04 53 4.08 53 0 53 C0 35.51 0 18.02 0 0 Z M12 10 C12 15.28 12 20.56 12 26 C14.77109307 26.05392397 17.54113818 26.09363455 20.3125 26.125 C21.09818359 26.14175781 21.88386719 26.15851562 22.69335938 26.17578125 C23.45068359 26.18222656 24.20800781 26.18867187 24.98828125 26.1953125 C26.03302612 26.21102295 26.03302612 26.21102295 27.09887695 26.22705078 C29.331173 26.10574595 29.331173 26.10574595 32 24 C32.47944836 21.17702376 32.47944836 21.17702376 32.375 18 C32.38273437 16.9275 32.39046875 15.855 32.3984375 14.75 C32.20121094 13.38875 32.20121094 13.38875 32 12 C28.95318939 9.96879293 28.39881676 9.75340125 24.98828125 9.8046875 C24.23095703 9.81113281 23.47363281 9.81757812 22.69335938 9.82421875 C21.90767578 9.84097656 21.12199219 9.85773437 20.3125 9.875 C19.51521484 9.88402344 18.71792969 9.89304687 17.89648438 9.90234375 C15.930861 9.92588415 13.96539225 9.96175453 12 10 Z " fill="#FFFFFF" transform="translate(394,508)"/>
<path d="M0 0 C1.22847656 -0.02900391 2.45695313 -0.05800781 3.72265625 -0.08789062 C13.87367093 -0.15937664 13.87367093 -0.15937664 17.4921875 2.05078125 C19.77796082 4.3405092 20.76867481 5.72550054 21.625 8.8125 C21.84929688 9.5653125 22.07359375 10.318125 22.3046875 11.09375 C22.75 13.3125 22.75 13.3125 22.75 17.3125 C18.79 17.3125 14.83 17.3125 10.75 17.3125 C10.09 15.3325 9.43 13.3525 8.75 11.3125 C5.79112541 11.23180342 2.8344341 11.17215335 -0.125 11.125 C-0.96675781 11.09986328 -1.80851563 11.07472656 -2.67578125 11.04882812 C-3.48144531 11.03916016 -4.28710938 11.02949219 -5.1171875 11.01953125 C-5.86081543 11.0038208 -6.60444336 10.98811035 -7.37060547 10.97192383 C-7.99080566 11.08431396 -8.61100586 11.1967041 -9.25 11.3125 C-11.52038301 14.71807452 -11.50671558 15.96969174 -11.515625 19.96875 C-11.51820313 21.07347656 -11.52078125 22.17820312 -11.5234375 23.31640625 C-11.51570312 24.47011719 -11.50796875 25.62382813 -11.5 26.8125 C-11.50773438 27.96621094 -11.51546875 29.11992188 -11.5234375 30.30859375 C-11.52085937 31.41332031 -11.51828125 32.51804687 -11.515625 33.65625 C-11.51336914 34.66880859 -11.51111328 35.68136719 -11.50878906 36.72460938 C-11.43064956 39.54977716 -11.43064956 39.54977716 -9.25 42.3125 C-7.31923522 42.72678346 -7.31923522 42.72678346 -5.1171875 42.60546875 C-4.31152344 42.59580078 -3.50585938 42.58613281 -2.67578125 42.57617188 C-1.83402344 42.55103516 -0.99226562 42.52589844 -0.125 42.5 C0.72449219 42.48646484 1.57398438 42.47292969 2.44921875 42.45898438 C4.54974837 42.42358219 6.64995293 42.36977401 8.75 42.3125 C9.41 39.3425 10.07 36.3725 10.75 33.3125 C6.46 33.3125 2.17 33.3125 -2.25 33.3125 C-2.25 30.3425 -2.25 27.3725 -2.25 24.3125 C6 24.3125 14.25 24.3125 22.75 24.3125 C22.811875 26.973125 22.87375 29.63375 22.9375 32.375 C22.97846802 33.61068726 22.97846802 33.61068726 23.02026367 34.87133789 C23.09006311 41.13902743 21.88607036 45.77591645 17.75 50.6875 C12.79914333 54.71007104 5.98571069 53.57577419 -0.0625 53.625 C-1.8269043 53.66850586 -1.8269043 53.66850586 -3.62695312 53.71289062 C-14.38565688 53.79195402 -14.38565688 53.79195402 -19.25 49.3125 C-25.34158965 42.72699767 -24.46219663 36.14386493 -24.5 27.5625 C-24.520625 26.4075 -24.54125 25.2525 -24.5625 24.0625 C-24.62709802 9.91553264 -24.62709802 9.91553264 -19.79760742 4.76293945 C-13.48309698 -0.68027387 -8.02794237 0.06239333 0 0 Z " fill="#FFFFFF" transform="translate(527.25,507.6875)"/>
<path d="M0 0 C4.72578655 1.43074272 7.59920774 4.20907272 10.9375 7.6875 C11.46674072 8.22769775 11.99598145 8.76789551 12.54125977 9.32446289 C16.19710339 13.0840024 19.63462423 16.97796554 23 21 C23.9075 21.886875 24.815 22.77375 25.75 23.6875 C27.76944439 25.76304007 28.91895003 27.34651371 30 30 C30.66 30 31.32 30 32 30 C32 30.66 32 31.32 32 32 C32.66 32 33.32 32 34 32 C34 32.66 34 33.32 34 34 C34.66 34 35.32 34 36 34 C36 34.66 36 35.32 36 36 C36.66 36 37.32 36 38 36 C39.3046875 37.328125 39.3046875 37.328125 40.875 39.25 C44.68659953 43.76565294 48.83247727 47.86942916 53.08740234 51.96191406 C54.42774345 53.27195774 55.71855875 54.63228766 57 56 C57 56.66 57 57.32 57 58 C57.66 58 58.32 58 59 58 C59 59.65 59 61.3 59 63 C56.0173094 64.52448631 53.181798 65.93940067 50 67 C50 67.66 50 68.32 50 69 C47.75 70.75 47.75 70.75 45 72 C42.8125 71.25 42.8125 71.25 41 70 C40.01 69.505 40.01 69.505 39 69 C39 68.34 39 67.68 39 67 C38.236875 66.71125 37.47375 66.4225 36.6875 66.125 C34 65 34 65 31 63 C31 62.34 31 61.68 31 61 C30.01 60.7215625 30.01 60.7215625 29 60.4375 C25.3794654 58.7026605 22.88162144 56.38242637 19.96484375 53.65625 C18.0539283 52.04545844 16.27394502 51.0128931 14 50 C14 49.34 14 48.68 14 48 C13.38125 47.690625 12.7625 47.38125 12.125 47.0625 C10.75 46.375 9.375 45.6875 8 45 C7.55667358 42.68195337 7.2185966 40.34325909 6.9375 38 C6.77594868 33.67240322 6.77594868 33.67240322 5 30 C4.64351021 28.29637573 4.3410545 26.58136973 4.0625 24.86328125 C3.88976562 23.81076172 3.71703125 22.75824219 3.5390625 21.67382812 C3.36117187 20.56458984 3.18328125 19.45535156 3 18.3125 C2.73316406 16.67764648 2.73316406 16.67764648 2.4609375 15.00976562 C2.12706788 12.96294551 1.79486229 10.91585278 1.46484375 8.8684082 C0.98553432 5.91073675 0.49457715 2.95515316 0 0 Z " fill="#FFFFFF" transform="translate(191,408)"/>
<path d="M0 0 C1.14984375 -0.02384766 2.2996875 -0.04769531 3.484375 -0.07226562 C9.37865995 -0.06207965 14.1460811 0.01586955 18.70068359 4.05883789 C24.33802123 10.58276921 23.45125617 18.37767106 23.375 26.5625 C23.38660156 27.80773437 23.39820313 29.05296875 23.41015625 30.3359375 C23.3675701 43.65120765 23.3675701 43.65120765 18.5 49.3046875 C12.22463168 54.04389795 7.27818896 53.77503824 -0.3125 53.8125 C-1.34568359 53.833125 -2.37886719 53.85375 -3.44335938 53.875 C-9.88540238 53.90805731 -14.67132153 53.59863428 -19.64453125 49.0625 C-24.64900701 42.63534718 -24.24779125 37.28741518 -24.29516602 29.38549805 C-24.31229014 27.39934092 -24.35617576 25.41347313 -24.40039062 23.42773438 C-24.49002508 9.85156144 -24.49002508 9.85156144 -20 4.5625 C-13.97235332 -0.49527268 -7.60986511 -0.07251553 0 0 Z M-10.71923828 11.70214844 C-13.6125588 15.90479853 -12.46538458 22.14974349 -12.4375 27.0625 C-12.45748047 28.31160156 -12.47746094 29.56070312 -12.49804688 30.84765625 C-12.49740234 32.04261719 -12.49675781 33.23757813 -12.49609375 34.46875 C-12.49794678 35.56509766 -12.4997998 36.66144531 -12.50170898 37.79101562 C-12.25104677 40.6515934 -12.25104677 40.6515934 -10.18969727 42.41625977 C-6.94439179 44.11507894 -4.13714137 43.99642014 -0.5 44 C0.8096875 44.01933594 2.119375 44.03867187 3.46875 44.05859375 C6.9918299 43.83124896 6.9918299 43.83124896 9.40625 41.91015625 C12.62015927 37.17594186 12.15907546 31.6791544 12.1875 26.125 C12.20876953 24.23974609 12.20876953 24.23974609 12.23046875 22.31640625 C11.98462793 18.31211768 11.3543396 15.32138639 10 11.5625 C6.72978041 9.92739021 3.15266249 10.33621701 -0.4375 10.3125 C-1.21416016 10.291875 -1.99082031 10.27125 -2.79101562 10.25 C-6.96751399 10.13239245 -6.96751399 10.13239245 -10.71923828 11.70214844 Z " fill="#FFFFFF" transform="translate(820,442.4375)"/>
<path d="M0 0 C1.7015625 -0.00580078 1.7015625 -0.00580078 3.4375 -0.01171875 C4.613125 -0.00011719 5.78875 0.01148438 7 0.0234375 C8.175625 0.01183594 9.35125 0.00023437 10.5625 -0.01171875 C11.696875 -0.00785156 12.83125 -0.00398438 14 0 C15.03125 0.00338379 16.0625 0.00676758 17.125 0.01025391 C20.46024034 0.46057933 22.31792934 1.3874696 25 3.3984375 C27.68001046 8.20397351 28.33456205 11.933924 28 17.3984375 C24.37 17.3984375 20.74 17.3984375 17 17.3984375 C16.67 15.0884375 16.34 12.7784375 16 10.3984375 C13.35409986 10.37159071 10.70846904 10.35167393 8.0625 10.3359375 C7.30775391 10.32755859 6.55300781 10.31917969 5.77539062 10.31054688 C3.85005687 10.30191309 1.92464419 10.34619417 0 10.3984375 C-1.20561184 11.38111609 -1.20561184 11.38111609 -1.09765625 13.24609375 C-1.08605469 13.97699219 -1.07445312 14.70789063 -1.0625 15.4609375 C-1.041875 16.7603125 -1.02125 18.0596875 -1 19.3984375 C2.57658389 20.47849501 6.02954273 20.60284885 9.75 20.7734375 C15.93309894 21.18521516 21.67827651 21.66846998 26.64453125 25.75 C30.28580771 30.17829587 29.42735902 37.00302987 29 42.3984375 C28.11050113 46.02837775 26.76778869 48.67863561 24 51.2734375 C18.68985203 54.26039573 13.04514469 53.62061073 7.125 53.6484375 C5.49111328 53.679375 5.49111328 53.679375 3.82421875 53.7109375 C2.77105469 53.71609375 1.71789062 53.72125 0.6328125 53.7265625 C-0.32737793 53.7359082 -1.28756836 53.74525391 -2.27685547 53.75488281 C-6.71933226 53.17338594 -10.1534939 50.81424482 -13 47.3984375 C-14.37020997 43.28780759 -14.06276637 39.72931688 -14 35.3984375 C-10.37 35.3984375 -6.74 35.3984375 -3 35.3984375 C-2.34 37.7084375 -1.68 40.0184375 -1 42.3984375 C4.9114744 43.17156795 10.1314592 43.54663027 16 42.3984375 C16.75427297 37.41937491 16.75427297 37.41937491 17 32.3984375 C15.865625 32.34945313 14.73125 32.30046875 13.5625 32.25 C12.04164602 32.1748961 10.52081375 32.09935166 9 32.0234375 C7.88431641 31.97703125 7.88431641 31.97703125 6.74609375 31.9296875 C0.30303684 31.59352801 -5.87006116 31.21115141 -10.9375 26.8984375 C-14.18677609 22.95992103 -14.18615011 20.66732456 -14.25 15.5859375 C-14.27578125 14.36261719 -14.3015625 13.13929688 -14.328125 11.87890625 C-13.97097121 8.09052494 -13.36675501 6.34659102 -11 3.3984375 C-7.23944165 0.68389216 -4.60948628 0.01512488 0 0 Z " fill="#FFFFFF" transform="translate(570,442.6015625)"/>
<path d="M0 0 C1.13308594 -0.02900391 2.26617188 -0.05800781 3.43359375 -0.08789062 C14.07232945 -0.16895954 14.07232945 -0.16895954 18.75 4.3125 C21.60283664 8.38798092 20.89122443 12.51086936 20.75 17.3125 C17.12 17.3125 13.49 17.3125 9.75 17.3125 C9.09 15.0025 8.43 12.6925 7.75 10.3125 C5.45839681 10.28557516 3.16670454 10.26613876 0.875 10.25 C-1.03925781 10.23259766 -1.03925781 10.23259766 -2.9921875 10.21484375 C-6.13664652 10.08073431 -6.13664652 10.08073431 -8.25 11.3125 C-8.25 13.9525 -8.25 16.5925 -8.25 19.3125 C-4.67341611 20.39255751 -1.22045727 20.51691135 2.5 20.6875 C9.17048075 21.13820816 14.40682522 21.87126087 19.921875 25.8984375 C22.50237109 29.30601567 22.43297305 32.51112601 22.375 36.625 C22.36786987 37.7696875 22.36786987 37.7696875 22.3605957 38.9375 C22.20089699 43.29104616 21.83736226 46.36303792 18.9375 49.8125 C13.86389064 54.52281388 7.42831815 53.53186487 0.9375 53.5625 C-0.68381836 53.5934375 -0.68381836 53.5934375 -2.33789062 53.625 C-8.03818083 53.65299406 -12.37576675 53.64025725 -17.25 50.3125 C-21.55122938 45.71463411 -21.36735579 41.41500088 -21.25 35.3125 C-17.62 35.3125 -13.99 35.3125 -10.25 35.3125 C-9.59 37.6225 -8.93 39.9325 -8.25 42.3125 C-1.70688671 43.18807031 3.51647981 43.6673854 9.75 41.3125 C9.75 38.3425 9.75 35.3725 9.75 32.3125 C8.62722656 32.27511719 7.50445313 32.23773438 6.34765625 32.19921875 C-12.34095022 31.43973982 -12.34095022 31.43973982 -18.75 26.3125 C-21.61611726 20.58026549 -21.61582017 14.61716707 -20.625 8.375 C-16.50414492 -0.80326814 -8.67947353 0.07305954 0 0 Z " fill="#FFFFFF" transform="translate(924.25,442.6875)"/>
<path d="M0 0 C3.63 0 7.26 0 11 0 C11 6.93 11 13.86 11 21 C18.26 21 25.52 21 33 21 C33 14.07 33 7.14 33 0 C36.96 0 40.92 0 45 0 C45 17.49 45 34.98 45 53 C41.04 53 37.08 53 33 53 C33 45.74 33 38.48 33 31 C25.74 31 18.48 31 11 31 C11 38.26 11 45.52 11 53 C7.37 53 3.74 53 0 53 C0 35.51 0 18.02 0 0 Z " fill="#FFFFFF" transform="translate(555,508)"/>
<path d="M0 0 C4.73219762 -0.09927153 9.46378213 -0.17165633 14.19677734 -0.21972656 C15.80495774 -0.23977627 17.41306583 -0.26702364 19.02099609 -0.30175781 C21.3397002 -0.35057264 23.65743625 -0.37303428 25.9765625 -0.390625 C27.04567368 -0.42159271 27.04567368 -0.42159271 28.13638306 -0.45318604 C33.24286488 -0.455454 36.05907789 0.81509303 40 4 C43.62884115 8.30397439 43.48579373 12.55933512 43.4375 17.9375 C43.4674707 19.11602539 43.4674707 19.11602539 43.49804688 20.31835938 C43.49357045 25.6676916 42.63474249 28.8309193 39 33 C34.36317108 37.22900076 28.59133295 36.33481253 22.6875 36.1875 C21.14739258 36.16719727 21.14739258 36.16719727 19.57617188 36.14648438 C17.05055511 36.11124321 14.52520944 36.05743947 12 36 C12 41.61 12 47.22 12 53 C3.50390625 53.09765625 3.50390625 53.09765625 1 53 C0 52 0 52 -0.12025452 49.90562439 C-0.1169236 48.52329369 -0.1169236 48.52329369 -0.11352539 47.11303711 C-0.11344986 46.07203354 -0.11337433 45.03102997 -0.11329651 43.95848083 C-0.10813522 42.8262056 -0.10297394 41.69393036 -0.09765625 40.52734375 C-0.0962413 39.37456436 -0.09482635 38.22178497 -0.09336853 37.03407288 C-0.08775005 33.33518936 -0.07519442 29.63636536 -0.0625 25.9375 C-0.05748738 23.43684983 -0.05292406 20.93619871 -0.04882812 18.43554688 C-0.03777462 12.29034412 -0.02101852 6.14517631 0 0 Z M12 10 C12 15.28 12 20.56 12 26 C14.3925 26.04125 16.785 26.0825 19.25 26.125 C19.99668945 26.14320801 20.74337891 26.16141602 21.51269531 26.18017578 C25.19778057 26.21090134 27.88201812 26.04115309 31 24 C31.02685938 21.85423363 31.04633088 19.70837355 31.0625 17.5625 C31.07410156 16.36753906 31.08570313 15.17257812 31.09765625 13.94140625 C31.33901792 11.11126659 31.33901792 11.11126659 30 10 C28.65732587 9.91368126 27.31025678 9.89293527 25.96484375 9.90234375 C25.15595703 9.90556641 24.34707031 9.90878906 23.51367188 9.91210938 C22.66353516 9.92048828 21.81339844 9.92886719 20.9375 9.9375 C20.08349609 9.94201172 19.22949219 9.94652344 18.34960938 9.95117188 C16.23304337 9.96299627 14.11651315 9.98093231 12 10 Z " fill="#FFFFFF" transform="translate(421,443)"/>
<path d="M0 0 C5.28 0 10.56 0 16 0 C19.44781672 8.3114036 22.41024081 16.75772586 25.31884766 25.26855469 C26.12618735 27.62847072 26.93981207 29.98615675 27.75390625 32.34375 C28.27642152 33.86705726 28.79856961 35.39049052 29.3203125 36.9140625 C29.67973434 37.95344467 29.67973434 37.95344467 30.04641724 39.01382446 C31.61659299 43.62955234 32.87002193 48.25674306 34 53 C30.04 53 26.08 53 22 53 C21.01 49.7 20.02 46.4 19 43 C12.07 43 5.14 43 -2 43 C-2.99 46.3 -3.98 49.6 -5 53 C-8.96 53 -12.92 53 -17 53 C-16.33650378 48.11060209 -14.99670682 43.58236192 -13.41796875 38.92578125 C-13.16251785 38.16130173 -12.90706696 37.3968222 -12.64387512 36.60917664 C-12.10380362 34.995661 -11.56158094 33.38286398 -11.01733398 31.77075195 C-10.19641759 29.33891696 -9.38178208 26.90505364 -8.56835938 24.47070312 C-5.82150393 16.2716938 -3.0037278 8.10933776 0 0 Z M8 11 C7.79318604 11.62567871 7.58637207 12.25135742 7.37329102 12.89599609 C6.43792318 15.72285054 5.50024079 18.54893188 4.5625 21.375 C4.23701172 22.35984375 3.91152344 23.3446875 3.57617188 24.359375 C3.26357422 25.30039062 2.95097656 26.24140625 2.62890625 27.2109375 C2.34088135 28.08024902 2.05285645 28.94956055 1.75610352 29.84521484 C1 32 1 32 0 34 C5.28 34 10.56 34 16 34 C13.70761808 26.32052056 11.3644854 18.65757199 9 11 C8.67 11 8.34 11 8 11 Z " fill="#FFFFFF" transform="translate(366,443)"/>
<path d="M0 0 C1.18078125 -0.03738281 2.3615625 -0.07476562 3.578125 -0.11328125 C13.34322001 -0.21225181 13.34322001 -0.21225181 16.9921875 2.7578125 C21.58370399 8.0801586 21.51492684 12.61936566 21.25 19.375 C19.43757948 19.40187279 17.62504767 19.42133715 15.8125 19.4375 C14.80316406 19.44910156 13.79382813 19.46070313 12.75390625 19.47265625 C10.25 19.375 10.25 19.375 9.25 18.375 C8.755 14.91 8.755 14.91 8.25 11.375 C2.64 11.375 -2.97 11.375 -8.75 11.375 C-10.45374413 16.4862324 -11.03112731 20.10386494 -10.9375 25.3125 C-10.9365332 26.32860352 -10.9365332 26.32860352 -10.93554688 27.36523438 C-10.89747827 31.77696273 -10.68458233 36.05863422 -9.75 40.375 C-6.17878282 42.75581145 -4.48325367 42.64406871 -0.25 42.625 C0.8946875 42.63015625 2.039375 42.6353125 3.21875 42.640625 C6.42666163 42.60385568 6.42666163 42.60385568 9.25 40.375 C9.98606499 36.80730448 9.98606499 36.80730448 10.25 33.375 C13.74384279 32.21038574 16.58655389 32.23931681 20.25 32.375 C22.03442106 34.15942106 21.5476921 36.64514155 21.625 39.0625 C21.5964283 43.06729927 21.57190921 45.83639389 19 49 C13.07545951 54.1166486 8.01853019 53.74094802 0.4375 53.75 C-0.63048828 53.77449219 -1.69847656 53.79898438 -2.79882812 53.82421875 C-9.36347212 53.84857735 -13.43679768 53.32215572 -18.75 49.375 C-24.76532135 42.568189 -23.93049617 33.44822657 -23.9375 24.8125 C-23.94974609 24.01392578 -23.96199219 23.21535156 -23.97460938 22.39257812 C-23.98907128 16.47766073 -23.95446758 10.11498682 -20.09375 5.31640625 C-19.4853125 4.86136719 -18.876875 4.40632813 -18.25 3.9375 C-17.6415625 3.46441406 -17.033125 2.99132812 -16.40625 2.50390625 C-11.51215452 -0.8319277 -5.73812386 0.06801655 0 0 Z " fill="#FFFFFF" transform="translate(770.75,442.625)"/>
<path d="M0 0 C1.66579102 -0.03577148 1.66579102 -0.03577148 3.36523438 -0.07226562 C12.41745843 -0.05601388 12.41745843 -0.05601388 16.12890625 2.95703125 C20.80362895 8.23290272 20.70259449 12.80259049 20.4375 19.5625 C18.62507948 19.58937279 16.81254767 19.60883715 15 19.625 C13.99066406 19.63660156 12.98132813 19.64820313 11.94140625 19.66015625 C9.4375 19.5625 9.4375 19.5625 8.4375 18.5625 C8.4375 16.2525 8.4375 13.9425 8.4375 11.5625 C2.1675 11.5625 -4.1025 11.5625 -10.5625 11.5625 C-10.5625 21.7925 -10.5625 32.0225 -10.5625 42.5625 C-7.79875 42.583125 -5.035 42.60375 -2.1875 42.625 C-1.31818848 42.634104 -0.44887695 42.64320801 0.44677734 42.65258789 C4.5731356 42.7767327 4.5731356 42.7767327 8.4375 41.5625 C8.90273063 39.66716658 8.90273063 39.66716658 9.0625 37.5 C9.248125 35.5509375 9.248125 35.5509375 9.4375 33.5625 C13.3975 33.5625 17.3575 33.5625 21.4375 33.5625 C21.73597088 39.13395639 21.82563479 44.86059865 18.4375 49.5625 C12.27912649 54.34669099 6.46671223 54.16861595 -1.125 54.0625 C-2.23552734 54.07796875 -3.34605469 54.0934375 -4.49023438 54.109375 C-10.80152088 54.07915939 -14.79463368 53.84401207 -19.5625 49.5625 C-24.80684244 43.59479998 -23.81733147 36.48871383 -23.85766602 28.99389648 C-23.86918126 27.50323999 -23.8896263 26.01262459 -23.91918945 24.5222168 C-23.96202161 22.36218405 -23.97805528 20.2033743 -23.98828125 18.04296875 C-24.00286377 16.75285889 -24.01744629 15.46274902 -24.0324707 14.13354492 C-23.30696613 8.62084084 -20.89154245 5.6113754 -16.59765625 2.22265625 C-11.4009803 -0.44703038 -5.70545065 -0.05648961 0 0 Z " fill="#FFFFFF" transform="translate(764.5625,507.4375)"/>
<path d="M0 0 C12.21 0 24.42 0 37 0 C37 3.3 37 6.6 37 10 C28.75 10 20.5 10 12 10 C12.33 13.63 12.66 17.26 13 21 C20.59 21 28.18 21 36 21 C36 23.97 36 26.94 36 30 C33.45017567 31.27491216 31.83534576 31.02596616 28.9921875 30.87890625 C28.00605469 30.83056641 27.01992188 30.78222656 26.00390625 30.73242188 C24.97136719 30.67634766 23.93882812 30.62027344 22.875 30.5625 C21.83472656 30.51029297 20.79445313 30.45808594 19.72265625 30.40429688 C17.14818761 30.27439249 14.57405702 30.13782019 12 30 C12 34.29 12 38.58 12 43 C20.25 43 28.5 43 37 43 C37 46.3 37 49.6 37 53 C24.79 53 12.58 53 0 53 C0 35.51 0 18.02 0 0 Z " fill="#FFFFFF" transform="translate(443,508)"/>
<path d="M0 0 C3.63 0 7.26 0 11 0 C11.02505615 1.13542236 11.0501123 2.27084473 11.07592773 3.44067383 C11.17005576 7.65075081 11.27026337 11.86066488 11.37231445 16.07055664 C11.41564287 17.89310904 11.45731947 19.71570148 11.49731445 21.53833008 C11.55506762 24.15718661 11.61874756 26.77584195 11.68359375 29.39453125 C11.70030624 30.21025101 11.71701874 31.02597076 11.73423767 31.8664093 C11.82013245 35.14179544 11.95752134 37.87256401 13 41 C15.97239791 42.48619895 18.69619578 42.13177009 22 42.125 C23.258125 42.12757813 24.51625 42.13015625 25.8125 42.1328125 C28.89677818 42.22227358 28.89677818 42.22227358 31 41 C32.28774446 37.13676662 32.23382793 33.42509463 32.31640625 29.39453125 C32.33718735 28.55532639 32.35796844 27.71612152 32.37937927 26.85148621 C32.44474018 24.17190706 32.50369714 21.49223031 32.5625 18.8125 C32.60569802 16.99543263 32.64931273 15.17837512 32.69335938 13.36132812 C32.8004078 8.90765201 32.90171319 4.45387774 33 0 C36.63 0 40.26 0 44 0 C44.04950439 5.88988016 44.0857692 11.7796387 44.10986328 17.66967773 C44.11990963 19.67262889 44.13354909 21.67556542 44.15087891 23.6784668 C44.17518713 26.56042088 44.18649687 29.44218072 44.1953125 32.32421875 C44.20563507 33.21711105 44.21595764 34.11000336 44.22659302 35.029953 C44.22831343 44.60214099 44.22831343 44.60214099 40.5625 48.546875 C34.23694116 53.41755531 30.21370139 53.27319868 22.375 53.375 C21.30636719 53.41238281 20.23773437 53.44976562 19.13671875 53.48828125 C12.97099097 53.55653654 8.69226302 53.00290779 3.51025391 49.56884766 C-0.93633819 44.94973986 -0.2628749 39.09271648 -0.1953125 33.10546875 C-0.1924826 32.15811356 -0.18965271 31.21075836 -0.18673706 30.23469543 C-0.17557187 27.21883334 -0.15047389 24.20327184 -0.125 21.1875 C-0.11496547 19.13867617 -0.10584045 17.08984768 -0.09765625 15.04101562 C-0.07564449 10.02722852 -0.04113971 5.01366517 0 0 Z " fill="#FFFFFF" transform="translate(507,443)"/>
<path d="M0 0 C1.10794922 -0.05994141 1.10794922 -0.05994141 2.23828125 -0.12109375 C5.85251952 0.70320621 8.22454704 2.77116403 10.6875 5.4375 C12.20326409 8.01855403 13.21606819 10.70911699 14.23046875 13.51953125 C14.52560867 14.29254074 14.8207486 15.06555023 15.12483215 15.86198425 C16.05840367 18.31868052 16.96697128 20.78376407 17.875 23.25 C18.49510964 24.89449772 19.11684036 26.53838513 19.74023438 28.18164062 C21.14935897 31.90661474 22.54485742 35.63617435 23.91708374 39.37490845 C24.44576687 40.79032168 24.99098601 42.19963529 25.54995728 43.60336304 C26.94656459 47.14340055 27.6875 49.57949055 27.6875 53.4375 C24.3875 53.4375 21.0875 53.4375 17.6875 53.4375 C13.70029269 43.7612286 9.97459343 33.99097217 6.3125 24.1875 C5.85955566 22.98504639 5.40661133 21.78259277 4.93994141 20.54370117 C4.51890137 19.41037354 4.09786133 18.2770459 3.6640625 17.109375 C3.09292725 15.57941895 3.09292725 15.57941895 2.51025391 14.01855469 C1.6875 11.4375 1.6875 11.4375 1.6875 8.4375 C1.0275 8.4375 0.3675 8.4375 -0.3125 8.4375 C-0.43625 9.159375 -0.56 9.88125 -0.6875 10.625 C-1.3125 13.4375 -1.3125 13.4375 -2.3125 15.8125 C-3.46999339 18.47838429 -3.46999339 18.47838429 -3.5625 21.6875 C-4.45146629 26.13233146 -6.30025958 28.60334084 -8.890625 32.2421875 C-10.78190394 35.16223904 -11.50233887 38.07221531 -12.3125 41.4375 C-13.23976867 43.80925754 -14.26895868 46.11324888 -15.3125 48.4375 C-14.90902344 48.07398438 -14.50554688 47.71046875 -14.08984375 47.3359375 C-8.23185223 42.48537127 1.8067644 36.4375 9.6875 36.4375 C9.6875 37.4275 9.6875 38.4175 9.6875 39.4375 C8.34708249 40.31935362 6.99403569 41.18437407 5.60546875 41.98828125 C3.51564251 43.43174279 3.51564251 43.43174279 1.80078125 45.91796875 C-1.23465608 49.78174804 -3.77394174 52.97594395 -8.82080078 53.89355469 C-14.99800455 54.31675383 -21.15237674 53.99009179 -27.3125 53.4375 C-25.12022472 45.43010147 -22.24036292 37.7158244 -19.23388672 29.98779297 C-18.43983356 27.94350774 -17.65514332 25.89579574 -16.87109375 23.84765625 C-7.7661144 0.22802063 -7.7661144 0.22802063 0 0 Z " fill="#FFFFFF" transform="translate(681.3125,442.5625)"/>
<path d="M0 0 C11.88 0 23.76 0 36 0 C36 3.3 36 6.6 36 10 C28.08 10 20.16 10 12 10 C12 13.96 12 17.92 12 22 C19.59 22 27.18 22 35 22 C35 25.3 35 28.6 35 32 C27.41 32 19.82 32 12 32 C12 38.93 12 45.86 12 53 C8.04 53 4.08 53 0 53 C0 35.51 0 18.02 0 0 Z " fill="#FFFFFF" transform="translate(623,443)"/>
<path d="M0 0 C11.55 0 23.1 0 35 0 C35 3.3 35 6.6 35 10 C27.08 10 19.16 10 11 10 C11 13.96 11 17.92 11 22 C18.59 22 26.18 22 34 22 C34 25.3 34 28.6 34 32 C26.41 32 18.82 32 11 32 C11 38.93 11 45.86 11 53 C7.37 53 3.74 53 0 53 C0 35.51 0 18.02 0 0 Z " fill="#FFFFFF" transform="translate(355,508)"/>
<path d="M0 0 C13.86 0 27.72 0 42 0 C42 3.3 42 6.6 42 10 C37.05 10.33 32.1 10.66 27 11 C27 24.86 27 38.72 27 53 C23.04 53 19.08 53 15 53 C15 38.81 15 24.62 15 10 C10.05 10 5.1 10 0 10 C0 6.7 0 3.4 0 0 Z " fill="#FFFFFF" transform="translate(603,508)"/>
<path d="M0 0 C3.96 0 7.92 0 12 0 C12 13.86 12 27.72 12 42 C19.92 42 27.84 42 36 42 C36 45.63 36 49.26 36 53 C24.12 53 12.24 53 0 53 C0 35.51 0 18.02 0 0 Z " fill="#FFFFFF" transform="translate(468,443)"/>
<path d="M0 0 C3.96 0 7.92 0 12 0 C12 13.86 12 27.72 12 42 C19.52432774 41.96041166 19.52432774 41.96041166 27.04858398 41.90991211 C28.44572632 41.90616577 28.44572632 41.90616577 29.87109375 41.90234375 C30.82943115 41.89710693 31.78776855 41.89187012 32.77514648 41.88647461 C35 42 35 42 36 43 C36 46.3 36 49.6 36 53 C24.12 53 12.24 53 0 53 C0 35.51 0 18.02 0 0 Z " fill="#FFFFFF" transform="translate(710,443)"/>
<path d="M0 0 C3.96 0 7.92 0 12 0 C12 17.49 12 34.98 12 53 C8.04 53 4.08 53 0 53 C0 35.51 0 18.02 0 0 Z " fill="#FFFFFF" transform="translate(667,508)"/>
<path d="M0 0 C3.96 0 7.92 0 12 0 C12 17.49 12 34.98 12 53 C8.04 53 4.08 53 0 53 C0 35.51 0 18.02 0 0 Z " fill="#FFFFFF" transform="translate(486,508)"/>
<path d="M0 0 C0.33 0 0.66 0 1 0 C1 17.16 1 34.32 1 52 C4.3 52 7.6 52 11 52 C11 44.74 11 37.48 11 30 C18.26 30 25.52 30 33 30 C33 27.36 33 24.72 33 22 C33.66 22 34.32 22 35 22 C35 25.3 35 28.6 35 32 C27.41 32 19.82 32 12 32 C12 38.93 12 45.86 12 53 C8.04 53 4.08 53 0 53 C0 35.51 0 18.02 0 0 Z " fill="#FFFFFF" transform="translate(623,443)"/>
<path d="M0 0 C2.475 0.99 2.475 0.99 5 2 C4.67 2.66 4.34 3.32 4 4 C4.24662241 7.06314844 4.24662241 7.06314844 5 10 C5.66 10.33 6.32 10.66 7 11 C7.31241371 13.54941373 7.51303421 16.00361513 7.625 18.5625 C7.66367188 19.27341797 7.70234375 19.98433594 7.7421875 20.71679688 C7.83671783 22.47742425 7.91945817 24.23867728 8 26 C8.66 26 9.32 26 10 26 C9.98839844 26.94101562 9.97679687 27.88203125 9.96484375 28.8515625 C9.95582031 30.09679687 9.94679687 31.34203125 9.9375 32.625 C9.92589844 33.85476563 9.91429687 35.08453125 9.90234375 36.3515625 C9.99136076 39.67723791 10.36313913 42.74047588 11 46 C10.01 45.67 9.02 45.34 8 45 C7.86722656 44.00097656 7.73445312 43.00195312 7.59765625 41.97265625 C7.42105469 40.68230469 7.24445313 39.39195312 7.0625 38.0625 C6.88847656 36.77472656 6.71445313 35.48695313 6.53515625 34.16015625 C6.33837577 31.14533687 6.33837577 31.14533687 5 30 C4.64351021 28.29637573 4.3410545 26.58136973 4.0625 24.86328125 C3.88976562 23.81076172 3.71703125 22.75824219 3.5390625 21.67382812 C3.36117187 20.56458984 3.18328125 19.45535156 3 18.3125 C2.73316406 16.67764648 2.73316406 16.67764648 2.4609375 15.00976562 C2.12706788 12.96294551 1.79486229 10.91585278 1.46484375 8.8684082 C0.98553432 5.91073675 0.49457715 2.95515316 0 0 Z " fill="#FFFFFF" transform="translate(191,408)"/>
<path d="M0 0 C3.3 0 6.6 0 10 0 C10 3.63 10 7.26 10 11 C3.06640625 11.09765625 3.06640625 11.09765625 1 11 C0 10 0 10 -0.09765625 7.71484375 C-0.06510417 5.14322917 -0.03255208 2.57161458 0 0 Z " fill="#FFFFFF" transform="translate(789,550)"/>
<path d="M0 0 C3 1 3 1 5 4 C5.37890625 6.35668945 5.37890625 6.35668945 5.5625 9.11328125 C5.63726562 10.11423828 5.71203125 11.11519531 5.7890625 12.14648438 C5.85867187 13.19126953 5.92828125 14.23605469 6 15.3125 C6.59863357 24.32530716 6.59863357 24.32530716 9 33 C8.625 35.375 8.625 35.375 8 37 C5.86403784 32.54233984 4.71290882 28.86975988 4.2421875 23.96484375 C3.86141491 20.87567256 2.8880368 17.97753515 2 15 C0.69144439 9.92600886 -0.27078907 5.2803869 0 0 Z " fill="#FFFFFF" transform="translate(134,408)"/>
<path d="M0 0 C6.25350037 5.10489826 12.59573688 10.5272273 16 18 C16.66 18 17.32 18 18 18 C18 18.66 18 19.32 18 20 C18.66 20 19.32 20 20 20 C20 20.66 20 21.32 20 22 C20.66 22 21.32 22 22 22 C22 22.66 22 23.32 22 24 C22.66 24 23.32 24 24 24 C23.67 24.66 23.34 25.32 23 26 C21.5805831 24.92027262 20.1645917 23.83604137 18.75 22.75 C17.96109375 22.14671875 17.1721875 21.5434375 16.359375 20.921875 C13.31243877 18.43993357 10.63697901 16.12229635 8.6875 12.6875 C6.67086673 9.47582479 4.21179364 7.19795609 1.42578125 4.6484375 C0 3 0 3 0 0 Z " fill="#FFFFFF" transform="translate(205,420)"/>
<path d="M0 0 C0.66 0 1.32 0 2 0 C2 0.99 2 1.98 2 3 C2.66 3.33 3.32 3.66 4 4 C3.12639244 5.51305227 2.22522237 7.01021638 1.3125 8.5 C0.81363281 9.3353125 0.31476563 10.170625 -0.19921875 11.03125 C-2 13 -2 13 -4.70703125 13.28125 C-5.46371094 13.1884375 -6.22039062 13.095625 -7 13 C-7 9 -7 9 -5.625 7.4375 C-5.08875 6.963125 -4.5525 6.48875 -4 6 C-3.34 5.01 -2.68 4.02 -2 3 C-1.34 3 -0.68 3 0 3 C0 2.01 0 1.02 0 0 Z " fill="#FFFFFF" transform="translate(178,569)"/>
<path d="M0 0 C0.66 0.33 1.32 0.66 2 1 C-0.55398281 5.16204606 -2.95054353 8.22931926 -7 11 C-7.66 11 -8.32 11 -9 11 C-9 11.66 -9 12.32 -9 13 C-10.53125 14.2890625 -10.53125 14.2890625 -12.5 15.625 C-13.1496875 16.07101562 -13.799375 16.51703125 -14.46875 16.9765625 C-14.9740625 17.31429687 -15.479375 17.65203125 -16 18 C-14.26253473 9.61717789 -6.41804945 4.91011939 0 0 Z " fill="#FFFFFF" transform="translate(195,560)"/>
<path d="M0 0 C3.62613199 0.56959153 5.25517741 1.92374534 7.75 4.5625 C8.36359375 5.20316406 8.9771875 5.84382813 9.609375 6.50390625 C10.06828125 6.99761719 10.5271875 7.49132812 11 8 C10.67 8.99 10.34 9.98 10 11 C9.67 10.01 9.34 9.02 9 8 C8.01 8.33 7.02 8.66 6 9 C3.3125 8.0625 3.3125 8.0625 1 7 C0.67 4.69 0.34 2.38 0 0 Z " fill="#FFFFFF" transform="translate(194,411)"/>
<path d="M0 0 C0.99 0.33 1.98 0.66 3 1 C3.47993156 3.54152435 3.95896727 6.08321222 4.4375 8.625 C4.57220703 9.33785156 4.70691406 10.05070312 4.84570312 10.78515625 C5.61018271 14.84995013 6.33669637 18.91714075 7 23 C3.26647003 19.26647003 2.8206054 15.19698265 2.28515625 10.06640625 C1.85256469 6.93159889 0.92532235 4.02271968 0 1 C0 0.67 0 0.34 0 0 Z " fill="#FFFFFF" transform="translate(136,422)"/>
<path d="M0 0 C2.475 0.99 2.475 0.99 5 2 C4.67 2.66 4.34 3.32 4 4 C4.08780403 6.04498425 4.24241538 8.08744948 4.4375 10.125 C4.59025391 11.76855469 4.59025391 11.76855469 4.74609375 13.4453125 C4.82988281 14.28835938 4.91367188 15.13140625 5 16 C4.34 16 3.68 16 3 16 C2.01 10.72 1.02 5.44 0 0 Z " fill="#FFFFFF" transform="translate(191,408)"/>
<path d="M0 0 C0.99 0.33 1.98 0.66 3 1 C3.33 4.3 3.66 7.6 4 11 C4.66 11 5.32 11 6 11 C6 12.65 6 14.3 6 16 C6.66 16 7.32 16 8 16 C8 16.66 8 17.32 8 18 C8.66 18.33 9.32 18.66 10 19 C7.23987354 18.71446968 6.18880628 18.20978476 4.3125 16.125 C2.38547634 11.53684843 2.25055969 6.93343387 2 2 C1.34 2 0.68 2 0 2 C0 1.34 0 0.68 0 0 Z " fill="#FFFFFF" transform="translate(152,495)"/>
<path d="M0 0 C1.1725131 0.95117134 2.33787015 1.91117009 3.5 2.875 C4.47453125 3.67550781 4.47453125 3.67550781 5.46875 4.4921875 C5.9740625 4.98976563 6.479375 5.48734375 7 6 C7 6.66 7 7.32 7 8 C7.66 8 8.32 8 9 8 C9 9.65 9 11.3 9 13 C8.34 13 7.68 13 7 13 C6.67 11.35 6.34 9.7 6 8 C5.01 7.67 4.02 7.34 3 7 C2.67 6.01 2.34 5.02 2 4 C1.34 3.67 0.68 3.34 0 3 C0 2.01 0 1.02 0 0 Z " fill="#FFFFFF" transform="translate(241,458)"/>
<path d="M0 0 C2.97 0.495 2.97 0.495 6 1 C6 2.65 6 4.3 6 6 C3.36 6.33 0.72 6.66 -2 7 C-2 6.34 -2 5.68 -2 5 C-1.01 4.34 -0.02 3.68 1 3 C0.67 2.01 0.34 1.02 0 0 Z " fill="#FFFFFF" transform="translate(287,487)"/>
<path d="M0 0 C0 0.99 0 1.98 0 3 C-2.31 4.32 -4.62 5.64 -7 7 C-9 5 -9 5 -10 3 C-8.70990357 2.49596232 -7.41786211 1.99690074 -6.125 1.5 C-5.04605469 1.08234375 -5.04605469 1.08234375 -3.9453125 0.65625 C-2 0 -2 0 0 0 Z " fill="#FFFFFF" transform="translate(691,479)"/>
<path d="M0 0 C-0.66 1.32 -1.32 2.64 -2 4 C-6 4 -6 4 -9 2 C-9 1.34 -9 0.68 -9 0 C-5.52176885 -1.15941038 -3.54104422 -0.70820884 0 0 Z " fill="#FFFFFF" transform="translate(239,475)"/>
<path d="M0 0 C0.66 0 1.32 0 2 0 C2.928125 1.175625 2.928125 1.175625 3.875 2.375 C5.88852174 4.86229156 7.08642859 5.85538266 10 7 C10 7.66 10 8.32 10 9 C10.66 9.33 11.32 9.66 12 10 C10.35 9.67 8.7 9.34 7 9 C7 8.34 7 7.68 7 7 C6.21625 6.71125 5.4325 6.4225 4.625 6.125 C2 5 2 5 0 3 C0 2.01 0 1.02 0 0 Z " fill="#FFFFFF" transform="translate(215,462)"/>
<path d="M0 0 C-1.13719419 3.41158256 -2.04342944 4.11854601 -5 6 C-5.66 6 -6.32 6 -7 6 C-7 6.66 -7 7.32 -7 8 C-7.66 8 -8.32 8 -9 8 C-9 7.01 -9 6.02 -9 5 C-7.5390625 3.61328125 -7.5390625 3.61328125 -5.625 2.3125 C-4.68527344 1.65701172 -4.68527344 1.65701172 -3.7265625 0.98828125 C-2 0 -2 0 0 0 Z " fill="#FFFFFF" transform="translate(248,469)"/>
<path d="M0 0 C1.98 0.66 3.96 1.32 6 2 C6 2.66 6 3.32 6 4 C6.61875 4.28875 7.2375 4.5775 7.875 4.875 C10 6 10 6 12 8 C8.58846252 7.38530856 6.48230844 6.10488946 3.75 4 C3.04359375 3.46375 2.3371875 2.9275 1.609375 2.375 C1.07828125 1.92125 0.5471875 1.4675 0 1 C0 0.67 0 0.34 0 0 Z " fill="#FFFFFF" transform="translate(216,468)"/>
<path d="M0 0 C0.66 0 1.32 0 2 0 C2.66 3.63 3.32 7.26 4 11 C3.01 10.67 2.02 10.34 1 10 C0.67 6.7 0.34 3.4 0 0 Z " fill="#FFFFFF" transform="translate(198,443)"/>
<path d="M0 0 C1.13199353 0.9080162 2.25532363 1.82683826 3.375 2.75 C4.00148437 3.26046875 4.62796875 3.7709375 5.2734375 4.296875 C7.08312318 6.08199481 8.00117455 7.67949644 9 10 C5.17647894 8.4422692 2.70794407 6.08404742 0 3 C0 2.01 0 1.02 0 0 Z " fill="#FFFFFF" transform="translate(205,420)"/>
<path d="M0 0 C0.66 1.32 1.32 2.64 2 4 C0.02 6.97 0.02 6.97 -2 10 C-3 8 -3 8 -2.44140625 6.0546875 C-2.15136719 5.33539063 -1.86132812 4.61609375 -1.5625 3.875 C-1.27503906 3.15054687 -0.98757813 2.42609375 -0.69140625 1.6796875 C-0.46324219 1.12539063 -0.23507812 0.57109375 0 0 Z " fill="#FFFFFF" transform="translate(676,462)"/>
<path d="M0 0 C0.66 0 1.32 0 2 0 C4.42857143 6.28571429 4.42857143 6.28571429 3 10 C-0.00617269 6.99382731 0.40414684 4.17618402 0 0 Z " fill="#FFFFFF" transform="translate(195,430)"/>
<path d="M0 0 C2.94586829 4.41880243 3.0985616 6.67767339 3 12 C0.50494038 9.50494038 0.64051624 8.32671112 0.375 4.875 C0.30023438 3.96492188 0.22546875 3.05484375 0.1484375 2.1171875 C0.09945312 1.41851562 0.05046875 0.71984375 0 0 Z " fill="#FFFFFF" transform="translate(134,408)"/>
<path d="M0 0 C0.77772405 2.33317216 1.42415568 4.61435923 2 7 C0.35 7 -1.3 7 -3 7 C-3 3 -3 3 -1.5 1.25 C-1.005 0.8375 -0.51 0.425 0 0 Z " fill="#FFFFFF" transform="translate(174,575)"/>
<path d="M0 0 C1.258125 -0.04125 2.51625 -0.0825 3.8125 -0.125 C4.52019531 -0.14820313 5.22789062 -0.17140625 5.95703125 -0.1953125 C8 0 8 0 11 2 C10.67 2.66 10.34 3.32 10 4 C9.278125 3.67 8.55625 3.34 7.8125 3 C4.98302573 1.99396471 2.97104534 1.83022598 0 2 C0 1.34 0 0.68 0 0 Z " fill="#FFFFFF" transform="translate(678,443)"/>
<path d="M0 0 C0.66 0 1.32 0 2 0 C2.125 6.75 2.125 6.75 1 9 C0.34 9 -0.32 9 -1 9 C-0.67 6.03 -0.34 3.06 0 0 Z " fill="#FFFFFF" transform="translate(199,434)"/>
<path d="M0 0 C1.98 0.99 1.98 0.99 4 2 C4 3.65 4 5.3 4 7 C3.01 6.67 2.02 6.34 1 6 C0.67 4.02 0.34 2.04 0 0 Z " fill="#FFFFFF" transform="translate(201,449)"/>
<path d="M0 0 C1.98 1.65 3.96 3.3 6 5 C5.67 5.99 5.34 6.98 5 8 C4.67 7.01 4.34 6.02 4 5 C1.99983534 3.79117904 1.99983534 3.79117904 0 3 C0 2.01 0 1.02 0 0 Z " fill="#FFFFFF" transform="translate(199,414)"/>
<path d="M0 0 C0.66 0 1.32 0 2 0 C2 0.66 2 1.32 2 2 C1.34 2 0.68 2 0 2 C0 1.34 0 0.68 0 0 Z " fill="#FFFFFF" transform="translate(240,453)"/>
<path d="" fill="#FFFFFF" transform="translate(0,0)"/>
<path d="" fill="#FFFFFF" transform="translate(0,0)"/>
<path d="" fill="#FFFFFF" transform="translate(0,0)"/>
<path d="" fill="#FFFFFF" transform="translate(0,0)"/>
</svg>
